<?xml version="1.0" encoding="UTF-8" standalone="no"?>
<!-- Created with Inkscape (http://www.inkscape.org/) -->

<svg
   width="11.976223mm"
   height="13.315006mm"
   viewBox="0 0 11.976223 13.315006"
   version="1.1"
   id="svg1"
   xml:space="preserve"
   xmlns="http://www.w3.org/2000/svg"
   xmlns:svg="http://www.w3.org/2000/svg"><defs
     id="defs1"><linearGradient
       id="swatch1"><stop
         style="stop-color:#000000;stop-opacity:1;"
         offset="0"
         id="stop1" /></linearGradient></defs><g
     id="layer1"
     transform="translate(-169.80391,-47.123666)"><path
       style="fill:#ffffff;fill-opacity:1;stroke:none;stroke-width:0.132334;stroke-dasharray:none;stroke-opacity:1"
       d="m 175.63245,60.436036 c -0.007,-0.0011 -0.0497,-0.0069 -0.094,-0.01308 -0.0443,-0.0061 -0.10356,-0.01595 -0.13164,-0.02187 -0.0281,-0.0059 -0.0547,-0.01086 -0.0591,-0.01099 -0.01,-2.3e-4 -0.14092,-0.03333 -0.17934,-0.04516 -0.0151,-0.0046 -0.0432,-0.01354 -0.0624,-0.01974 -0.0192,-0.0062 -0.0388,-0.01193 -0.0435,-0.01274 -0.005,-9.01e-4 -0.0204,-0.0066 -0.0349,-0.01286 -0.0145,-0.0063 -0.0308,-0.01226 -0.036,-0.01333 -0.01,-0.0018 -0.058,-0.02008 -0.10582,-0.03966 -0.0611,-0.02498 -0.0801,-0.03253 -0.11014,-0.04374 -0.0177,-0.0067 -0.0431,-0.01755 -0.0564,-0.02436 -0.0133,-0.0068 -0.0326,-0.01609 -0.0429,-0.02066 -0.0104,-0.0045 -0.0479,-0.02554 -0.0832,-0.0466 -0.0355,-0.02107 -0.0742,-0.04369 -0.086,-0.05029 -0.052,-0.02905 -0.14554,-0.08339 -0.15044,-0.08741 -0.003,-0.0025 -0.0163,-0.01003 -0.0296,-0.01689 -0.0133,-0.0068 -0.0254,-0.01404 -0.0269,-0.01593 -0.002,-0.0018 -0.0148,-0.0095 -0.0296,-0.01687 -0.0148,-0.0074 -0.0344,-0.01886 -0.0435,-0.02552 -0.009,-0.0067 -0.0191,-0.01209 -0.0221,-0.01209 -0.003,0 -0.0113,-0.0045 -0.0183,-0.01 -0.007,-0.0055 -0.0273,-0.01772 -0.0451,-0.02713 -0.0177,-0.0094 -0.0491,-0.02779 -0.0698,-0.04082 -0.0207,-0.01302 -0.0391,-0.02379 -0.0409,-0.02391 -0.002,-1.29e-4 -0.0214,-0.01111 -0.0436,-0.02441 -0.0221,-0.01329 -0.0427,-0.02417 -0.0457,-0.02417 -0.003,0 -0.008,-0.0034 -0.0117,-0.0076 -0.004,-0.0042 -0.0164,-0.01274 -0.0288,-0.01905 -0.0124,-0.0063 -0.0358,-0.01974 -0.0521,-0.02985 -0.0162,-0.01012 -0.0332,-0.02011 -0.0376,-0.02219 -0.005,-0.002 -0.0262,-0.01439 -0.0484,-0.02734 -0.0222,-0.01294 -0.0451,-0.02628 -0.0511,-0.02963 -0.0822,-0.0466 -0.13087,-0.07517 -0.13944,-0.08184 -0.006,-0.0045 -0.0123,-0.0081 -0.0146,-0.0081 -0.003,0 -0.022,-0.01088 -0.0439,-0.02417 -0.0219,-0.01329 -0.0423,-0.02417 -0.0455,-0.02417 -0.003,0 -0.006,-0.002 -0.007,-0.0047 -9.2e-4,-0.0026 -0.0139,-0.01115 -0.0286,-0.01908 -0.0148,-0.0079 -0.0402,-0.02249 -0.0564,-0.03242 -0.0163,-0.0099 -0.0417,-0.02463 -0.0565,-0.03265 -0.0148,-0.008 -0.0332,-0.01908 -0.0409,-0.02454 -0.007,-0.0055 -0.0198,-0.01248 -0.0269,-0.01558 -0.007,-0.0031 -0.0285,-0.01526 -0.0477,-0.02698 -0.0192,-0.01173 -0.0506,-0.0299 -0.0698,-0.0404 -0.0192,-0.01048 -0.0482,-0.02734 -0.0645,-0.03746 -0.0163,-0.01012 -0.0332,-0.02016 -0.0376,-0.02231 -0.01,-0.0046 -0.0851,-0.04806 -0.0967,-0.0556 -0.005,-0.0029 -0.0213,-0.01248 -0.0376,-0.02141 -0.0163,-0.0089 -0.0332,-0.01857 -0.0376,-0.02144 -0.008,-0.0054 -0.0667,-0.03921 -0.0927,-0.05363 -0.008,-0.0045 -0.0439,-0.02513 -0.0793,-0.04582 -0.0356,-0.02067 -0.0748,-0.04325 -0.0873,-0.05015 -0.0125,-0.0069 -0.0263,-0.01537 -0.0308,-0.01884 -0.005,-0.0034 -0.0201,-0.01232 -0.0349,-0.01969 -0.0148,-0.0074 -0.0281,-0.01501 -0.0296,-0.01701 -0.002,-0.002 -0.0148,-0.01 -0.0296,-0.01783 -0.0148,-0.0079 -0.0401,-0.02245 -0.0564,-0.03249 -0.0162,-0.01005 -0.0332,-0.01999 -0.0376,-0.02208 -0.005,-0.002 -0.0254,-0.01425 -0.0466,-0.02704 -0.0212,-0.01278 -0.0401,-0.02324 -0.042,-0.02324 -0.002,0 -0.0114,-0.006 -0.021,-0.01343 -0.01,-0.0074 -0.0193,-0.01342 -0.0215,-0.01342 -0.002,0 -0.0213,-0.01053 -0.0425,-0.02341 -0.0212,-0.01288 -0.0441,-0.02513 -0.0506,-0.02723 -0.006,-0.002 -0.0121,-0.0056 -0.0121,-0.0079 0,-0.0023 -0.0121,-0.0098 -0.0269,-0.01668 -0.0148,-0.0069 -0.0269,-0.01442 -0.0269,-0.01668 0,-0.0023 -0.006,-0.0058 -0.0121,-0.0079 -0.006,-0.002 -0.0295,-0.01435 -0.0506,-0.02723 -0.0213,-0.01288 -0.0408,-0.0234 -0.0437,-0.0234 -0.003,0 -0.008,-0.0034 -0.0114,-0.0076 -0.004,-0.0042 -0.0164,-0.01265 -0.0288,-0.01884 -0.0124,-0.0062 -0.0262,-0.01354 -0.0306,-0.01637 -0.026,-0.01659 -0.0912,-0.05391 -0.094,-0.05391 -0.002,0 -0.0114,-0.006 -0.021,-0.01342 -0.01,-0.0074 -0.0199,-0.01342 -0.0226,-0.01342 -0.003,0 -0.0137,-0.0059 -0.0244,-0.01317 -0.0106,-0.0073 -0.0336,-0.02073 -0.051,-0.02994 -0.0174,-0.0092 -0.0449,-0.02497 -0.0611,-0.035 -0.0163,-0.01003 -0.0332,-0.01996 -0.0376,-0.02211 -0.005,-0.002 -0.0236,-0.01329 -0.0425,-0.0248 -0.0189,-0.01152 -0.0394,-0.02322 -0.0456,-0.02602 -0.006,-0.0028 -0.027,-0.01467 -0.0462,-0.0264 -0.0192,-0.01173 -0.0482,-0.02868 -0.0645,-0.03769 -0.0163,-0.009 -0.0441,-0.02502 -0.0618,-0.03559 -0.0177,-0.01056 -0.043,-0.02531 -0.0562,-0.03277 -0.0131,-0.0075 -0.0349,-0.02001 -0.0484,-0.02789 -0.0135,-0.0079 -0.0281,-0.01609 -0.0325,-0.01823 -0.005,-0.002 -0.0213,-0.01207 -0.0376,-0.02208 -0.0163,-0.01 -0.0501,-0.02985 -0.0752,-0.04408 -0.0251,-0.01423 -0.0505,-0.02886 -0.0564,-0.03251 -0.006,-0.0037 -0.0249,-0.01377 -0.042,-0.02247 -0.0173,-0.0087 -0.0354,-0.01934 -0.0403,-0.02367 -0.0101,-0.0089 -0.0812,-0.05751 -0.084,-0.05751 -0.003,0 -0.12879,-0.08109 -0.13172,-0.08502 -0.002,-0.002 -0.0216,-0.01664 -0.0446,-0.0324 -0.0231,-0.01575 -0.0474,-0.03386 -0.0541,-0.04024 -0.006,-0.0064 -0.0314,-0.0261 -0.0548,-0.04381 -0.0564,-0.04271 -0.29221,-0.278699 -0.33282,-0.333136 -0.0176,-0.02364 -0.0345,-0.0458 -0.0375,-0.04924 -0.0135,-0.01566 -0.0336,-0.0433 -0.0484,-0.06657 -0.009,-0.01398 -0.0247,-0.03835 -0.0353,-0.0542 -0.0105,-0.01583 -0.0209,-0.03242 -0.023,-0.03686 -0.002,-0.0044 -0.012,-0.02137 -0.0221,-0.03762 -0.0247,-0.04002 -0.0961,-0.184433 -0.11789,-0.238333 -0.0201,-0.04973 -0.0371,-0.09492 -0.0388,-0.102841 -5.1e-4,-0.003 -0.006,-0.01988 -0.0122,-0.03761 -0.0223,-0.06487 -0.06,-0.205807 -0.0627,-0.233718 -5e-4,-0.0074 -0.006,-0.04003 -0.0123,-0.07253 -0.0133,-0.07117 -0.0257,-0.177668 -0.0333,-0.285655 -0.004,-0.05426 -0.006,-0.858297 -0.004,-2.518968 l 0.002,-2.43927 0.0123,-0.07522 c 0.006,-0.04136 0.0171,-0.09819 0.023,-0.126261 0.006,-0.02807 0.0117,-0.05709 0.013,-0.06448 0.008,-0.05053 0.0767,-0.266724 0.0953,-0.303227 0.006,-0.01201 0.0109,-0.0224 0.0105,-0.0231 -2.3e-4,-7e-4 0.004,-0.0124 0.01,-0.02597 0.006,-0.01359 0.0106,-0.02589 0.0106,-0.02736 0,-0.004 0.0614,-0.125146 0.0745,-0.146878 0.006,-0.01035 0.0176,-0.03078 0.0255,-0.0454 0.007,-0.01462 0.0184,-0.03276 0.0236,-0.04029 0.006,-0.0075 0.0247,-0.03666 0.0432,-0.06473 0.0517,-0.07802 0.13621,-0.184545 0.19586,-0.247057 0.11919,-0.124937 0.18592,-0.186023 0.31821,-0.291279 0.0413,-0.03287 0.12658,-0.08936 0.15728,-0.104213 0.0133,-0.0065 0.0386,-0.02249 0.0564,-0.03567 0.0301,-0.02245 0.0587,-0.03836 0.12358,-0.06903 0.0148,-0.007 0.0341,-0.01799 0.043,-0.02445 0.009,-0.0065 0.027,-0.01758 0.0403,-0.0247 0.0362,-0.01934 0.14972,-0.08362 0.1773,-0.100351 0.0133,-0.008 0.0386,-0.02258 0.0563,-0.03225 0.0531,-0.02909 0.0794,-0.0443 0.10759,-0.06238 0.0148,-0.0095 0.0414,-0.02512 0.0591,-0.03479 0.0177,-0.0097 0.0347,-0.01953 0.0377,-0.02189 0.003,-0.0023 0.0188,-0.01143 0.0349,-0.02016 0.0162,-0.0087 0.0585,-0.03288 0.0939,-0.0537 0.0355,-0.02082 0.0887,-0.05134 0.11821,-0.06784 0.0296,-0.0165 0.0634,-0.03599 0.0752,-0.04333 0.0118,-0.0073 0.0251,-0.01504 0.0296,-0.01708 0.005,-0.002 0.0201,-0.01088 0.0349,-0.01962 0.0696,-0.04121 0.11741,-0.06805 0.121,-0.06805 0.003,0 0.006,-0.003 0.01,-0.0067 0.003,-0.0037 0.0209,-0.01473 0.0396,-0.02454 0.0355,-0.0186 0.0383,-0.02022 0.0822,-0.04698 0.0149,-0.0091 0.0343,-0.02018 0.0431,-0.02473 0.0247,-0.01265 0.18627,-0.106759 0.20148,-0.117332 0.007,-0.0052 0.0231,-0.01419 0.0349,-0.02008 0.0243,-0.01214 0.0725,-0.03976 0.0967,-0.05531 0.009,-0.0057 0.021,-0.01278 0.0269,-0.01574 0.006,-0.003 0.0204,-0.01138 0.0322,-0.01878 0.0118,-0.0074 0.0335,-0.01985 0.0484,-0.02772 0.0148,-0.0079 0.0438,-0.02449 0.0645,-0.03692 0.0207,-0.01244 0.0509,-0.02981 0.0672,-0.03861 0.0163,-0.0088 0.0402,-0.02274 0.0532,-0.03095 0.0234,-0.01476 0.0366,-0.02229 0.0999,-0.05687 0.0177,-0.0097 0.0358,-0.02059 0.0403,-0.0242 0.005,-0.0036 0.0237,-0.01504 0.043,-0.02537 0.037,-0.0199 0.12165,-0.06833 0.25689,-0.146928 0.0453,-0.0263 0.0967,-0.05545 0.11436,-0.06478 0.0176,-0.0093 0.0398,-0.02277 0.0493,-0.02988 0.01,-0.0071 0.0258,-0.01632 0.036,-0.02045 0.0104,-0.0042 0.0273,-0.01329 0.0376,-0.02031 0.0103,-0.007 0.0296,-0.01863 0.0429,-0.02576 0.0133,-0.0071 0.0278,-0.01529 0.0322,-0.01809 0.0202,-0.01286 0.0819,-0.04852 0.0839,-0.04852 9.2e-4,0 0.0214,-0.01209 0.0451,-0.02686 0.0236,-0.01478 0.044,-0.02686 0.0453,-0.02686 0.002,0 0.0117,-0.0063 0.0229,-0.01388 0.0112,-0.0077 0.03,-0.01868 0.0418,-0.02458 0.0304,-0.01515 0.0475,-0.02468 0.10409,-0.05826 0.0274,-0.01625 0.0617,-0.03588 0.0761,-0.04361 0.0145,-0.0078 0.033,-0.01855 0.0412,-0.02403 0.008,-0.0054 0.0162,-0.01005 0.0177,-0.01013 0.003,-1.22e-4 0.0333,-0.01816 0.0671,-0.0393 0.006,-0.0037 0.0185,-0.01026 0.0279,-0.01459 0.009,-0.0043 0.0186,-0.01026 0.0204,-0.01317 0.002,-0.0029 0.0123,-0.0095 0.0232,-0.01462 0.011,-0.0051 0.0466,-0.02478 0.079,-0.04371 0.0325,-0.01891 0.0724,-0.04164 0.0887,-0.05048 0.0163,-0.0089 0.0332,-0.01884 0.0376,-0.02223 0.005,-0.0034 0.0141,-0.0096 0.0214,-0.01379 0.039,-0.02208 0.10602,-0.06185 0.15823,-0.09383 0.0657,-0.04022 0.32332,-0.168201 0.34681,-0.172273 0.002,-2.29e-4 0.006,-0.0023 0.009,-0.0044 0.004,-0.002 0.0203,-0.0086 0.0376,-0.01423 0.0173,-0.0056 0.0484,-0.01662 0.0691,-0.02433 0.15091,-0.0563 0.33515,-0.10224 0.51041,-0.127273 0.0732,-0.01045 0.10837,-0.01228 0.23642,-0.01228 0.12827,0 0.1631,0.0018 0.2364,0.01232 0.13294,0.01905 0.27424,0.04925 0.36341,0.07766 0.0889,0.0283 0.18187,0.05955 0.19618,0.0659 0.009,0.0042 0.0184,0.0075 0.0202,0.0075 0.002,0 0.0135,0.0045 0.026,0.0101 0.0125,0.0055 0.0312,0.01315 0.0416,0.01685 0.0486,0.01742 0.26253,0.12146 0.32337,0.157247 0.0275,0.01617 0.0585,0.03418 0.0688,0.03998 0.0252,0.01419 0.11406,0.06571 0.14934,0.08666 0.0156,0.0093 0.0295,0.01689 0.0307,0.01689 9.2e-4,0 0.0242,0.01329 0.051,0.02955 0.0268,0.01625 0.0496,0.02955 0.0507,0.02955 9.3e-4,0 0.0179,0.0097 0.0373,0.02148 0.0195,0.01182 0.0366,0.02149 0.0381,0.02149 0.002,0 0.0178,0.0093 0.0364,0.02059 0.0185,0.01132 0.0445,0.0267 0.0578,0.03416 0.0133,0.0075 0.0561,0.03199 0.095,0.05451 0.039,0.02252 0.0788,0.04548 0.0887,0.05105 0.01,0.0055 0.0414,0.02375 0.0702,0.04041 0.0288,0.01666 0.054,0.03031 0.056,0.03031 0.002,0 0.007,0.0033 0.0122,0.0074 0.005,0.0041 0.0206,0.01411 0.0354,0.02237 0.0663,0.03709 0.0988,0.05565 0.12627,0.07219 0.0163,0.0098 0.0404,0.02385 0.0538,0.03127 0.0405,0.02263 0.087,0.04923 0.12089,0.06928 0.0177,0.01048 0.0407,0.0239 0.0511,0.02979 0.0103,0.0059 0.049,0.0283 0.086,0.0498 0.037,0.0215 0.0757,0.04384 0.086,0.04965 0.0103,0.0058 0.0769,0.044 0.14776,0.08485 0.0709,0.04086 0.13633,0.07819 0.14536,0.08294 0.009,0.0047 0.0239,0.014 0.0331,0.02052 0.009,0.0066 0.0181,0.01186 0.0199,0.01186 0.002,0 0.0268,0.0137 0.0556,0.03046 0.0288,0.01676 0.0612,0.0355 0.0721,0.04164 0.0109,0.0062 0.0496,0.02836 0.086,0.04937 0.1445,0.08342 0.25126,0.144686 0.29987,0.17207 0.0281,0.01582 0.0547,0.0311 0.0591,0.03397 0.0106,0.0069 0.0539,0.03172 0.094,0.05388 0.0177,0.0098 0.0383,0.02187 0.0456,0.02683 0.0118,0.0079 0.0604,0.03608 0.11821,0.06848 0.042,0.02355 0.20487,0.118037 0.25411,0.147404 0.029,0.01726 0.0536,0.03139 0.0548,0.03139 0.002,0 0.11417,0.06379 0.13167,0.07489 0.005,0.0028 0.0368,0.02157 0.0719,0.04168 0.0351,0.02011 0.075,0.04311 0.0887,0.05111 0.0137,0.008 0.0393,0.0227 0.0571,0.03267 0.0177,0.01 0.0479,0.02737 0.0671,0.03866 0.0192,0.0113 0.0438,0.02561 0.0548,0.0318 0.0109,0.0062 0.0508,0.02915 0.0887,0.05101 0.0379,0.02185 0.0785,0.04514 0.0903,0.05175 0.0878,0.04904 0.15439,0.08831 0.2111,0.124391 0.26719,0.169984 0.51717,0.407402 0.68012,0.645927 0.0697,0.102061 0.14825,0.243775 0.18936,0.341707 0.006,0.01478 0.0174,0.04137 0.0249,0.0591 0.0171,0.04039 0.0578,0.166305 0.0755,0.233719 0.0135,0.05135 0.0257,0.109261 0.0479,0.228345 l 0.012,0.06448 0.002,2.468822 c 9.2e-4,1.589395 -2.3e-4,2.497043 -0.004,2.548045 -0.006,0.09407 -0.0185,0.194017 -0.0336,0.275382 -0.006,0.03251 -0.012,0.06514 -0.0133,0.07253 -0.005,0.02506 -0.0244,0.104569 -0.0381,0.150439 -0.11454,0.386097 -0.31216,0.692088 -0.62476,0.967367 -0.16107,0.141847 -0.33901,0.26209 -0.54265,0.366701 -0.14411,0.07403 -0.18678,0.0894 -0.27913,0.100548 -0.0877,0.01058 -0.21249,-0.0029 -0.27696,-0.02979 -0.0929,-0.03881 -0.14373,-0.07253 -0.2096,-0.138984 -0.0746,-0.07528 -0.12418,-0.161938 -0.14933,-0.261119 -0.01,-0.03877 -0.0116,-0.06109 -0.0116,-0.147752 -6e-5,-0.08982 0.002,-0.107892 0.0125,-0.150442 0.0147,-0.05636 0.049,-0.132202 0.0815,-0.180033 0.0317,-0.04667 0.12029,-0.132643 0.16329,-0.158456 0.0197,-0.01181 0.0557,-0.03617 0.08,-0.05413 0.0456,-0.03374 0.10143,-0.06804 0.22416,-0.137873 0.0712,-0.04053 0.1009,-0.05967 0.15311,-0.09872 0.0517,-0.03866 0.12886,-0.110631 0.17218,-0.160595 0.0252,-0.02909 0.0651,-0.09063 0.0872,-0.134677 0.0221,-0.0439 0.0513,-0.135581 0.0573,-0.179634 0.006,-0.04047 0.004,-5.017801 -0.002,-5.050788 -0.003,-0.01643 -0.009,-0.0433 -0.0137,-0.0597 -0.005,-0.01641 -0.01,-0.0344 -0.0107,-0.03998 -0.007,-0.03831 -0.0648,-0.163565 -0.0916,-0.200879 -0.01,-0.01329 -0.0214,-0.03213 -0.0264,-0.04184 -0.0138,-0.02709 -0.0842,-0.103454 -0.11656,-0.126517 -0.0251,-0.0179 -0.15315,-0.09491 -0.15774,-0.09491 -9.2e-4,0 -0.0352,-0.01967 -0.0761,-0.04369 -0.0409,-0.02403 -0.0872,-0.0506 -0.10269,-0.05904 -0.0273,-0.01489 -0.0578,-0.03262 -0.0794,-0.04631 -0.006,-0.0037 -0.0214,-0.01276 -0.0347,-0.02019 -0.0133,-0.0075 -0.0314,-0.01776 -0.0403,-0.02293 -0.009,-0.0052 -0.0331,-0.01901 -0.0538,-0.03078 -0.0207,-0.01175 -0.0416,-0.02382 -0.0466,-0.02683 -0.0124,-0.0075 -0.0608,-0.03539 -0.0931,-0.05361 -0.0148,-0.0083 -0.045,-0.02608 -0.0671,-0.03945 -0.0222,-0.01338 -0.0536,-0.03159 -0.0698,-0.0405 -0.0163,-0.0089 -0.0593,-0.03388 -0.0957,-0.05552 -0.0364,-0.02164 -0.067,-0.03934 -0.0679,-0.03934 -9.2e-4,0 -0.0353,-0.01967 -0.0762,-0.0437 -0.0409,-0.02403 -0.0872,-0.0506 -0.10269,-0.05904 -0.0273,-0.01489 -0.0578,-0.03262 -0.0794,-0.04631 -0.006,-0.0037 -0.0214,-0.01276 -0.0347,-0.02019 -0.0133,-0.0075 -0.0314,-0.01776 -0.0403,-0.02293 -0.009,-0.0052 -0.0331,-0.019 -0.0538,-0.03078 -0.0207,-0.01175 -0.0415,-0.02383 -0.0463,-0.02683 -0.005,-0.003 -0.021,-0.01207 -0.036,-0.02019 -0.0226,-0.01221 -0.11597,-0.06633 -0.14605,-0.08472 -0.005,-0.0027 -0.0201,-0.0118 -0.0349,-0.02022 -0.0305,-0.01735 -0.222,-0.128313 -0.2955,-0.171217 -0.0118,-0.0069 -0.0251,-0.01425 -0.0296,-0.01632 -0.005,-0.002 -0.0293,-0.01662 -0.0552,-0.0323 -0.026,-0.0157 -0.0486,-0.02853 -0.0502,-0.02853 -0.002,0 -0.009,-0.0044 -0.0173,-0.0099 -0.007,-0.0054 -0.0275,-0.01719 -0.0438,-0.02608 -0.0163,-0.0089 -0.0418,-0.02341 -0.0567,-0.03229 -0.015,-0.0089 -0.0379,-0.02219 -0.0511,-0.02958 -0.0131,-0.0074 -0.0541,-0.03106 -0.0911,-0.05261 -0.037,-0.02155 -0.0769,-0.04456 -0.0887,-0.05115 -0.0118,-0.0066 -0.0517,-0.02953 -0.0887,-0.05098 -0.10043,-0.05833 -0.24126,-0.139485 -0.2685,-0.154724 -0.0132,-0.0074 -0.0454,-0.02636 -0.0714,-0.04215 -0.0261,-0.01579 -0.0483,-0.0287 -0.0495,-0.0287 -9.2e-4,0 -0.0138,-0.0069 -0.028,-0.01543 -0.0342,-0.02042 -0.1231,-0.0721 -0.14676,-0.08535 -0.0103,-0.0058 -0.049,-0.02816 -0.086,-0.0497 -0.037,-0.02155 -0.0769,-0.04455 -0.0887,-0.05114 -0.0118,-0.0066 -0.0517,-0.02954 -0.0887,-0.05101 -0.0369,-0.02146 -0.078,-0.04507 -0.0911,-0.05247 -0.0468,-0.02635 -0.0783,-0.04443 -0.0863,-0.04957 -0.005,-0.0029 -0.0189,-0.01131 -0.0322,-0.01875 -0.0133,-0.0075 -0.0314,-0.01776 -0.0403,-0.02293 -0.009,-0.0052 -0.0597,-0.03458 -0.11283,-0.06536 -0.0532,-0.03078 -0.12037,-0.07006 -0.14929,-0.08727 -0.0289,-0.01722 -0.0534,-0.0313 -0.0545,-0.0313 -9.3e-4,0 -0.0354,-0.01974 -0.0764,-0.04388 -0.0409,-0.02414 -0.0854,-0.04977 -0.0986,-0.05698 -0.0297,-0.01606 -0.119,-0.06819 -0.1463,-0.08535 -0.011,-0.0069 -0.0213,-0.0126 -0.0226,-0.0126 -0.003,0 -0.0801,-0.04424 -0.0943,-0.05394 -0.023,-0.01568 -0.0916,-0.0452 -0.11283,-0.04849 -0.0986,-0.01534 -0.11395,-0.01655 -0.16656,-0.01317 -0.0898,0.0058 -0.11665,0.01483 -0.21156,0.07117 -0.0262,0.01557 -0.0487,0.0283 -0.0498,0.0283 -9.2e-4,0 -0.0196,0.01047 -0.0409,0.02323 -0.0213,0.01279 -0.0594,0.03514 -0.0844,0.0497 -0.025,0.01455 -0.0504,0.02939 -0.0564,0.03297 -0.006,0.0036 -0.0145,0.0081 -0.0189,0.01022 -0.005,0.002 -0.0338,0.01905 -0.0652,0.03783 -0.0315,0.01878 -0.0585,0.03411 -0.06,0.03411 -0.002,0 -0.0218,0.01157 -0.0449,0.02573 -0.0231,0.01414 -0.0686,0.04089 -0.10113,0.05943 -0.0325,0.01855 -0.0627,0.03586 -0.0672,0.0385 -0.0589,0.03503 -0.12416,0.07278 -0.14606,0.08458 -0.0151,0.0081 -0.0312,0.01719 -0.036,0.02019 -0.005,0.003 -0.0256,0.01506 -0.0463,0.02683 -0.0207,0.01175 -0.0449,0.02561 -0.0538,0.03077 -0.009,0.0052 -0.027,0.01547 -0.0403,0.02293 -0.0133,0.0075 -0.0278,0.01588 -0.0322,0.01872 -0.0325,0.02098 -0.0911,0.0538 -0.096,0.0538 -0.004,0 -0.006,0.0024 -0.006,0.0054 0,0.003 -0.003,0.0054 -0.006,0.0054 -0.003,0 -0.0382,0.01934 -0.0785,0.04298 -0.0404,0.02364 -0.0743,0.04298 -0.0753,0.04298 -9.3e-4,0 -0.0268,0.01476 -0.0572,0.03281 -0.0304,0.01804 -0.0721,0.04257 -0.0929,0.05448 -0.0207,0.01192 -0.0442,0.02616 -0.0522,0.03166 -0.008,0.0055 -0.0165,0.01 -0.0189,0.01 -0.003,0 -0.0128,0.0056 -0.0231,0.01255 -0.0103,0.0069 -0.0333,0.02061 -0.0509,0.03046 -0.0395,0.02194 -0.0832,0.04696 -0.094,0.05386 -0.0197,0.01251 -0.0919,0.05358 -0.0943,0.05358 -0.002,0 -0.0116,0.0056 -0.0226,0.0126 -0.0273,0.01716 -0.11666,0.0693 -0.14629,0.08535 -0.0133,0.0072 -0.0576,0.03284 -0.0986,0.05698 -0.041,0.02414 -0.0753,0.04388 -0.0764,0.04388 -9.2e-4,0 -0.0256,0.01407 -0.0545,0.03125 -0.0499,0.02969 -0.0771,0.04548 -0.11974,0.06945 -0.0103,0.0058 -0.0394,0.02274 -0.0645,0.0376 -0.0441,0.02604 -0.0571,0.03364 -0.11552,0.06703 -0.0148,0.0084 -0.0305,0.01765 -0.0349,0.02042 -0.008,0.0052 -0.043,0.02506 -0.0863,0.04943 -0.0131,0.0074 -0.0541,0.031 -0.0911,0.05247 -0.0369,0.02146 -0.0769,0.04442 -0.0887,0.051 -0.0118,0.0066 -0.0517,0.0296 -0.0887,0.05114 -0.0369,0.02155 -0.0756,0.04391 -0.086,0.0497 -0.0237,0.01326 -0.11254,0.06494 -0.14677,0.08535 -0.0142,0.0085 -0.0268,0.01543 -0.028,0.01543 -9.2e-4,0 -0.0301,0.01691 -0.0644,0.0376 -0.0343,0.02067 -0.0631,0.03762 -0.0641,0.03762 -9.3e-4,0 -0.0345,0.01907 -0.0743,0.04239 -0.0398,0.02332 -0.083,0.04836 -0.096,0.05566 -0.0129,0.0073 -0.0538,0.03083 -0.0907,0.05229 -0.0369,0.02146 -0.0769,0.04442 -0.0887,0.051 -0.0118,0.0066 -0.0517,0.0296 -0.0887,0.05114 -0.0369,0.02155 -0.078,0.04522 -0.0911,0.05261 -0.0131,0.0074 -0.0361,0.0207 -0.0511,0.02958 -0.015,0.0089 -0.0405,0.02341 -0.0567,0.03229 -0.0163,0.0089 -0.0359,0.02061 -0.0438,0.02608 -0.007,0.0055 -0.0156,0.0099 -0.0173,0.0099 -0.002,0 -0.0243,0.01283 -0.0503,0.02853 -0.026,0.0157 -0.0508,0.03023 -0.0552,0.0323 -0.005,0.002 -0.0177,0.0094 -0.0296,0.01632 -0.0118,0.0069 -0.0372,0.02174 -0.0564,0.03296 -0.0192,0.01122 -0.0591,0.03418 -0.0887,0.05099 -0.15555,0.08852 -0.20321,0.121474 -0.2443,0.168889 -0.0258,0.02971 -0.0878,0.123975 -0.11071,0.168054 -0.0234,0.04513 -0.0559,0.127624 -0.0585,0.1485 -9.3e-4,0.0064 -0.006,0.02493 -0.0103,0.04119 -0.005,0.01627 -0.011,0.05374 -0.0137,0.08329 -0.007,0.08374 -0.005,5.008675 0.003,5.028955 0.004,0.0089 0.0126,0.0403 0.0204,0.06984 0.0171,0.06442 0.0209,0.07412 0.0479,0.122724 0.0581,0.104578 0.16149,0.213357 0.2817,0.296492 0.0269,0.01861 0.0205,0.01467 0.0924,0.05693 0.0592,0.03479 0.0672,0.03938 0.12358,0.07145 0.0192,0.0109 0.0385,0.02211 0.043,0.02487 0.005,0.0028 0.0189,0.01111 0.0322,0.01855 0.0133,0.0075 0.0278,0.01588 0.0322,0.01878 0.0144,0.0094 0.13571,0.08061 0.13728,0.08061 0.002,0 0.0804,0.04515 0.0937,0.0538 0.005,0.0029 0.0177,0.01036 0.0296,0.01664 0.0118,0.0063 0.0248,0.01418 0.0289,0.01751 0.007,0.0061 0.0553,0.03345 0.10539,0.06025 0.0148,0.0079 0.0281,0.01616 0.0296,0.01832 0.002,0.002 0.0124,0.0091 0.0242,0.01547 0.0118,0.0064 0.0251,0.01387 0.0296,0.01671 0.0174,0.0112 0.0924,0.0538 0.0947,0.0538 0.002,0 0.009,0.0045 0.017,0.0101 0.0132,0.0092 0.077,0.04669 0.11797,0.0694 0.0286,0.01586 0.0682,0.03859 0.0766,0.04399 0.008,0.0054 0.1097,0.0651 0.13701,0.08073 0.009,0.0051 0.031,0.01801 0.0492,0.02876 0.0182,0.01074 0.0355,0.01953 0.0383,0.01953 0.003,0 0.008,0.0034 0.0115,0.0076 0.004,0.0042 0.0164,0.01269 0.0288,0.01891 0.0124,0.0063 0.0515,0.02849 0.087,0.04946 0.0355,0.02098 0.073,0.04293 0.0833,0.04878 0.0103,0.0058 0.0324,0.01886 0.049,0.02891 0.0166,0.01003 0.032,0.01824 0.034,0.01824 0.002,0 0.0116,0.006 0.0213,0.01343 0.01,0.0074 0.0201,0.01342 0.0231,0.01342 0.003,0 0.0113,0.0045 0.0183,0.01 0.007,0.0055 0.0273,0.01781 0.0451,0.02735 0.0177,0.0096 0.0455,0.02549 0.0618,0.03543 0.0163,0.0099 0.0397,0.02323 0.0521,0.02952 0.0124,0.0063 0.0254,0.01487 0.0288,0.01905 0.004,0.0042 0.008,0.0076 0.0116,0.0076 0.003,0 0.0233,0.01088 0.0452,0.02417 0.0219,0.01329 0.0407,0.02417 0.0419,0.02417 9.3e-4,0 0.0222,0.0124 0.0468,0.02755 0.0246,0.01515 0.058,0.03467 0.0743,0.04337 0.0163,0.0087 0.0429,0.024 0.0591,0.03399 0.0163,0.01 0.0429,0.02562 0.0591,0.03475 0.0163,0.0091 0.0453,0.02619 0.0645,0.03792 0.0192,0.01173 0.0386,0.02291 0.0429,0.02483 0.005,0.0018 0.0141,0.0077 0.0215,0.01278 0.007,0.0051 0.028,0.01699 0.0456,0.02638 0.0177,0.0094 0.0455,0.02531 0.0618,0.03535 0.0163,0.01003 0.0332,0.01994 0.0376,0.02206 0.005,0.002 0.0356,0.02031 0.0692,0.04047 0.0336,0.02017 0.062,0.03666 0.0629,0.03666 9.2e-4,0 0.0197,0.01088 0.0417,0.02417 0.0219,0.01329 0.0415,0.02417 0.0435,0.02417 0.002,0 0.0116,0.006 0.0213,0.01343 0.01,0.0074 0.0201,0.01342 0.0231,0.01342 0.003,0 0.0113,0.0045 0.0183,0.01 0.007,0.0055 0.0273,0.01781 0.0451,0.02735 0.0177,0.0096 0.0455,0.02548 0.0618,0.03542 0.0162,0.0099 0.0404,0.02424 0.0538,0.03179 0.0133,0.0076 0.0278,0.01609 0.0322,0.01894 0.0134,0.0086 0.0921,0.05381 0.0938,0.05381 9.2e-4,0 0.0292,0.01632 0.0631,0.03627 0.0792,0.04669 0.0887,0.05217 0.11452,0.06628 0.0118,0.0065 0.0227,0.01352 0.0242,0.0157 0.002,0.002 0.0172,0.01168 0.0349,0.02109 0.0536,0.02848 0.0786,0.0431 0.0927,0.05424 0.007,0.0058 0.0158,0.0106 0.0187,0.0106 0.003,0 0.0115,0.0045 0.0194,0.01014 0.007,0.0055 0.0287,0.01786 0.0466,0.02725 0.0177,0.0094 0.0455,0.02527 0.0618,0.03526 0.0163,0.01 0.0405,0.02405 0.0538,0.03126 0.0133,0.0072 0.0443,0.02546 0.0689,0.04056 0.0246,0.0151 0.0456,0.02745 0.0468,0.02745 9.3e-4,0 0.02,0.01088 0.0419,0.02417 0.0219,0.01329 0.0415,0.02417 0.0435,0.02417 0.002,0 0.0116,0.006 0.0213,0.01342 0.01,0.0074 0.0201,0.01342 0.0231,0.01342 0.003,0 0.0113,0.0045 0.0183,0.01 0.007,0.0054 0.0273,0.01781 0.0451,0.02735 0.0177,0.0096 0.0455,0.02548 0.0618,0.03541 0.0163,0.0099 0.0404,0.02424 0.0538,0.03179 0.0133,0.0076 0.0278,0.01604 0.0322,0.01886 0.0286,0.0182 0.0913,0.05389 0.0945,0.05389 0.002,0 0.0114,0.0055 0.0205,0.01228 0.0362,0.02673 0.16824,0.08636 0.1884,0.08508 0.002,-6.4e-5 0.0142,0.0034 0.0283,0.0078 0.0174,0.0055 0.0497,0.008 0.10105,0.0081 0.0769,1.26e-4 0.10187,-0.0033 0.16364,-0.02259 0.0192,-0.006 0.0386,-0.01173 0.043,-0.01274 0.01,-0.0023 0.0424,-0.01693 0.0538,-0.02414 0.005,-0.0028 0.0298,-0.01762 0.0564,-0.03289 0.0266,-0.01527 0.0549,-0.03225 0.0629,-0.03776 0.008,-0.0055 0.0162,-0.01003 0.0182,-0.01003 0.002,0 0.0214,-0.01088 0.0434,-0.02417 0.0219,-0.01329 0.0406,-0.02417 0.0417,-0.02417 9.3e-4,0 0.0293,-0.0165 0.0629,-0.03666 0.0336,-0.02017 0.0647,-0.03837 0.0692,-0.04047 0.005,-0.002 0.0213,-0.01207 0.0376,-0.02217 0.0163,-0.0101 0.0416,-0.02484 0.0564,-0.03275 0.0148,-0.0079 0.0276,-0.01648 0.0286,-0.01907 9.2e-4,-0.0026 0.004,-0.0047 0.006,-0.0047 0.003,0 0.0175,-0.0077 0.0331,-0.01691 0.0157,-0.0093 0.0526,-0.02955 0.0822,-0.045 0.0296,-0.01544 0.0852,-0.04598 0.12358,-0.06785 0.0868,-0.04945 0.12643,-0.06616 0.18805,-0.07939 0.18024,-0.03869 0.36004,2.3e-4 0.49418,0.106971 0.15955,0.12696 0.23959,0.318156 0.21795,0.520665 -0.008,0.07697 -0.0258,0.139352 -0.0568,0.202077 -0.0551,0.111302 -0.13237,0.18628 -0.29881,0.289989 -0.005,0.003 -0.017,0.01194 -0.0269,0.01979 -0.0164,0.01294 -0.10955,0.06934 -0.16308,0.09866 -0.0118,0.0065 -0.0427,0.0243 -0.0685,0.03964 -0.0461,0.0273 -0.10595,0.0578 -0.22967,0.11697 -0.034,0.01625 -0.0686,0.03298 -0.0769,0.03717 -0.008,0.0042 -0.0176,0.0076 -0.0205,0.0076 -0.003,0 -0.0185,0.006 -0.0346,0.01342 -0.0162,0.0074 -0.0315,0.01342 -0.0342,0.01342 -0.003,0 -0.0164,0.0051 -0.0308,0.01122 -0.0142,0.0062 -0.0296,0.01201 -0.034,0.01294 -0.005,9.01e-4 -0.0218,0.0068 -0.0385,0.01317 -0.0167,0.0063 -0.0349,0.01235 -0.0403,0.01342 -0.006,0.0011 -0.0231,0.0067 -0.0393,0.01241 -0.0564,0.01994 -0.20679,0.06113 -0.23125,0.06332 -0.007,7e-4 -0.0377,0.0064 -0.0672,0.01255 -0.0294,0.0063 -0.097,0.01733 -0.15022,0.02464 -0.0844,0.01161 -0.11475,0.01322 -0.23909,0.01263 -0.0783,-4.59e-4 -0.14842,-0.0016 -0.15581,-0.0026 z m -0.80324,-3.110628 c -0.52304,-0.474597 -0.98613,-0.894667 -1.02908,-0.933488 -0.27447,-0.248124 -1.71126,-1.552049 -1.76077,-1.597947 l -0.0604,-0.05603 v -1.581096 -1.581094 l 0.22968,-0.131741 c 0.35819,-0.205437 1.69749,-0.973368 1.89963,-1.089209 l 0.18166,-0.104104 0.47517,0.475151 0.47517,0.475149 v 0.244743 c 0,0.183196 -0.002,0.246368 -0.006,0.251193 -0.005,0.005 -0.14918,0.0065 -0.61652,0.0065 h -0.61006 l 0.26862,0.268745 0.26862,0.268746 0.34312,-4.59e-4 c 0.18871,-2.3e-4 0.34408,4.59e-4 0.34526,0.0018 9.3e-4,0.0011 0.002,0.561034 0.002,1.244096 l -1.3e-4,1.241931 0.0622,0.253891 c 0.0342,0.139638 0.0968,0.39533 0.13923,0.568199 0.0424,0.172872 0.13676,0.558507 0.20977,0.856969 0.0731,0.298461 0.13438,0.544436 0.13637,0.546607 0.004,0.004 0.0177,-0.0515 0.16129,-0.637945 0.0442,-0.180259 0.14873,-0.605789 0.23243,-0.94562 l 0.15215,-0.617877 0.003,-1.25621 0.003,-1.25621 0.34449,4.59e-4 0.34449,4.59e-4 0.26895,-0.268789 0.26897,-0.268789 h -0.60835 c -0.466,0 -0.60985,-0.0016 -0.61479,-0.0065 -0.005,-0.0048 -0.006,-0.0686 -0.006,-0.253879 v -0.24743 l 0.47287,-0.4728 0.47288,-0.4728 0.0174,0.01001 c 0.0496,0.02853 1.14628,0.657398 1.57552,0.903459 0.27187,0.155847 0.54448,0.312265 0.60578,0.347592 l 0.1115,0.06424 -6e-5,1.583206 -7e-5,1.583205 -1.89984,1.723337 c -1.04492,0.947837 -1.90138,1.723322 -1.90327,1.723299 -0.002,-2.5e-5 -0.43136,-0.388351 -0.95441,-0.862949 z"
       id="path1" /><path
       style="fill:#ffffff;fill-opacity:1;stroke:none;stroke-width:0.264583;stroke-dasharray:none;stroke-opacity:1"
       d="m 163.73797,86.190147 c -0.79917,-0.146093 -0.62287,-0.05278 -5.49995,-2.909409 -4.87328,-2.854319 -4.99709,-2.946514 -5.55105,-4.133259 -0.38112,-0.816487 -0.36933,-0.609337 -0.37028,-6.501081 -9.3e-4,-7.846466 -0.57651,-6.821183 5.97967,-10.657676 5.3151,-3.110238 4.87459,-2.905751 6.24309,-2.898099 1.02387,0.0056 1.42511,0.124738 2.48637,0.737445 9.03588,5.216909 9.16738,5.314363 9.5881,7.105615 0.132,0.561992 0.1338,10.867023 0.002,11.42612 -0.52258,2.21672 -3.25946,3.987669 -3.98085,2.575883 -0.31314,-0.612809 -0.11383,-1.084935 0.65639,-1.554891 1.45811,-0.889672 1.42543,-0.73482 1.42641,-6.75832 9.3e-4,-6.595388 0.61437,-5.517398 -5.01473,-8.814641 -5.15324,-3.018536 -5.05866,-2.978759 -6.00969,-2.527319 -0.76393,0.362626 -8.44326,4.915024 -8.68221,5.146916 -0.69969,0.679042 -0.70927,0.763036 -0.70927,6.224218 0,6.629886 -0.63714,5.529369 5.16765,8.925927 5.31621,3.110666 4.94888,2.997731 6.61604,2.034119 1.23576,-0.714276 2.16033,-0.498888 2.15849,0.502853 -0.002,1.157711 -2.70837,2.404247 -4.50617,2.075599 z m 0.36388,-3.7125 c -0.16877,-0.07298 -8.30785,-8.150735 -8.551,-8.486523 -1.65644,-2.287468 -0.77335,-5.906368 1.75521,-7.192931 2.2781,-1.159108 4.28447,-0.731162 6.35746,1.356017 l 0.81612,0.821699 0.87593,-0.867573 c 1.78355,-1.766518 3.26837,-2.256051 5.24936,-1.73067 3.28959,0.872414 4.71994,4.821079 2.76935,7.645136 -0.29822,0.431771 -8.29074,8.359597 -8.52663,8.457628 -0.26963,0.11206 -0.48225,0.111268 -0.7458,-0.0028 z"
       id="path262166" /></g></svg>
