<?xml version="1.0" encoding="UTF-8" standalone="no"?>
<!-- Created with Inkscape (http://www.inkscape.org/) -->

<svg
   width="11.558515mm"
   height="12.864424mm"
   viewBox="0 0 11.558514 12.864424"
   version="1.1"
   id="svg1"
   xml:space="preserve"
   sodipodi:docname="logo-colors-white.svg"
   inkscape:version="1.4.2 (f4327f4, 2025-05-13)"
   inkscape:export-filename="logo-final-100.svg"
   inkscape:export-xdpi="219.75"
   inkscape:export-ydpi="219.75"
   xmlns:inkscape="http://www.inkscape.org/namespaces/inkscape"
   xmlns:sodipodi="http://sodipodi.sourceforge.net/DTD/sodipodi-0.dtd"
   xmlns="http://www.w3.org/2000/svg"
   xmlns:svg="http://www.w3.org/2000/svg"><sodipodi:namedview
     id="namedview1"
     pagecolor="#000000"
     bordercolor="#000000"
     borderopacity="0.25"
     inkscape:showpageshadow="2"
     inkscape:pageopacity="0.0"
     inkscape:pagecheckerboard="0"
     inkscape:deskcolor="#d1d1d1"
     inkscape:document-units="mm"
     inkscape:zoom="4"
     inkscape:cx="78.75"
     inkscape:cy="344.625"
     inkscape:window-width="3840"
     inkscape:window-height="2054"
     inkscape:window-x="-11"
     inkscape:window-y="-11"
     inkscape:window-maximized="1"
     inkscape:current-layer="g32"
     inkscape:export-bgcolor="#00000000"><inkscape:page
       x="9.5021427e-16"
       y="0"
       width="11.558514"
       height="12.864424"
       id="page2"
       margin="0"
       bleed="0" /></sodipodi:namedview><defs
     id="defs1"><linearGradient
       id="swatch29"
       inkscape:swatch="solid"><stop
         style="stop-color:#a62525;stop-opacity:1;"
         offset="0"
         id="stop29" /></linearGradient></defs><g
     inkscape:groupmode="layer"
     id="layer5"
     inkscape:label="Separated Hex And Soap Backup"
     style="display:inline"
     transform="translate(-19.761907,-31.018579)"><path
       d="m 29.692083,33.145582 c -0.0338,0.0027 -0.03844,0.03921 -0.04754,0.103869 -0.006,0.018 -0.009,0.03032 -0.02791,0.07752 -0.0412,0.10491 -0.03395,0.103232 -0.10542,0.202572 -0.0722,0.1002 -0.140816,0.188996 -0.322977,0.283186 -0.04237,0.02189 -0.07722,0.04883 -0.07906,0.06046 0,0 0,5.17e-4 0,5.17e-4 2.65e-4,0.0109 0.194508,0.131815 0.431498,0.268717 0.274478,0.15854 0.470802,0.292273 0.541052,0.368453 0.139541,0.151312 0.240832,0.371359 0.272852,0.592729 0.03222,0.22265 0.03222,4.426679 0,4.676717 -0.0302,0.234542 -0.158033,0.503006 -0.30024,0.631486 -0.0575,0.0519 -0.20839,0.155801 -0.33538,0.230993 -0.247631,0.146638 -0.352116,0.266512 -0.379305,0.434082 -0.03031,0.18675 0.102092,0.428713 0.279052,0.509013 0.163409,0.0741 0.343489,0.03542 0.628386,-0.135392 0.443881,-0.266079 0.725129,-0.567061 0.908988,-0.97255 0.168492,-0.37158 0.164331,-0.293012 0.164331,-3.030823 0,-2.733819 0.0041,-2.659641 -0.162264,-3.026172 -0.14247,-0.314199 -0.381019,-0.614624 -0.63717,-0.802535 -0.06949,-0.051 -0.287953,-0.186425 -0.485242,-0.301274 -0.198792,-0.115742 -0.290613,-0.169015 -0.336413,-0.171565 -0.0025,-1.25e-4 -0.005,-1.79e-4 -0.0072,0 z"
       style="display:inline;fill:#ffffff;stroke-width:0.104518"
       id="path53"
       inkscape:label="hex-r"
       inkscape:export-filename="logo-final-light-520.png"
       inkscape:export-xdpi="1142.71"
       inkscape:export-ydpi="1142.71" /><path
       d="m 25.541432,31.01858 c -0.363754,0 -0.608409,0.05198 -0.870748,0.185518 -0.2296,0.11687 -3.988052,2.32646 -4.112927,2.41794 -0.34127,0.25001 -0.634718,0.687112 -0.741557,1.104842 -0.05222,0.20408 -0.05468,0.31617 -0.05426,2.718181 5.29e-4,2.792909 -0.0065,2.67673 0.19327,3.0856 0.133858,0.274099 0.308313,0.497111 0.532784,0.680061 0.145592,0.11867 3.79632,2.283068 4.168221,2.471167 0.152418,0.0771 0.372091,0.14996 0.546736,0.181901 0.235713,0.0431 0.68812,0.01067 0.933277,-0.06718 0.254771,-0.0808 0.896918,-0.436041 1.029911,-0.569991 0.221845,-0.22343 0.165641,-0.574985 -0.118339,-0.740006 -0.186859,-0.108578 -0.324262,-0.07971 -0.732255,0.155546 -0.190119,0.109632 -0.407132,0.218007 -0.482141,0.240295 -0.181097,0.05379 -0.439911,0.0496 -0.610299,-0.0093 -0.185613,-0.0645 -4.025769,-2.313948 -4.17804,-2.447396 -0.150278,-0.13172 -0.282305,-0.394491 -0.316259,-0.629419 -0.03349,-0.23168 -0.03349,-4.465706 0,-4.697387 0.03182,-0.220089 0.157662,-0.48076 0.296622,-0.61495 0.100055,-0.0966 3.78033,-2.273452 4.101042,-2.425692 0.130783,-0.0621 0.189042,-0.07235 0.414962,-0.07235 0.328181,0 0.321583,-0.0031 1.493449,0.68678 l 0.870748,0.513147 0.0186,-0.23306 c 0.01341,-0.17021 0.04419,-0.241517 0.07596,-0.313676 0.02204,-0.05 0.04494,-0.08748 0.05788,-0.109038 0.008,-0.0133 0.05177,-0.07285 0.115239,-0.127124 0.06347,-0.0543 0.103348,-0.08728 0.103869,-0.110071 5.29e-4,-0.0296 -1.750995,-1.030345 -1.865002,-1.088305 -0.262678,-0.13354 -0.507084,-0.185519 -0.870748,-0.185519 z"
       style="display:inline;fill:#ffffff;stroke-width:0.104518"
       id="path50"
       inkscape:label="hex-l" /><path
       id="path58"
       style="display:inline;fill:#ffffff;stroke-width:0.104518"
       inkscape:label="soap-out"
       d="m 22.431189,34.654732 c -0.03539,10e-4 -0.0686,0.0053 -0.102319,0.01034 -0.446056,0.0642 -0.810371,0.313461 -1.016476,0.696081 -0.166992,0.30998 -0.167948,0.321008 -0.167948,2.113049 0,1.50593 0.0039,1.647366 0.05116,1.817977 0.125039,0.450931 0.454401,0.787415 0.91674,0.936894 0.200866,0.06493 0.488986,0.06457 0.898654,-10e-4 0.744858,-0.119357 1.731427,-0.195336 2.530594,-0.195336 0.799168,0 1.785222,0.07601 2.530079,0.195336 0.551961,0.08841 0.824706,0.06486 1.150834,-0.100252 0.1846,-0.0935 0.410598,-0.311732 0.527099,-0.509013 0.191334,-0.32406 0.191935,-0.336474 0.182935,-2.227254 l -0.0078,-1.628841 c 0,0 0,-0.03935 -0.0031,-0.06615 -0.03274,-0.116174 -0.04602,-0.143787 -0.05064,-0.149862 l -5.17e-4,-5.16e-4 -5.17e-4,-5.17e-4 h -5.16e-4 c -0.0331,-0.08194 -0.07521,-0.150447 -0.08682,-0.158647 h -5.17e-4 -5.16e-4 -5.17e-4 -5.17e-4 c -0.01098,0.0037 -0.07157,0.06369 -0.137459,0.136943 -0.0782,0.087 -0.190761,0.17095 -0.307475,0.22841 -0.167315,0.08243 -0.207577,0.09093 -0.434082,0.09043 -0.315413,-5.56e-4 -0.500218,-0.07843 -0.718302,-0.30179 -0.166967,-0.17102 -0.254874,-0.366352 -0.282154,-0.627352 -0.01995,-0.19076 0.01322,-0.18207 -0.452685,-0.12299 -0.590821,0.0749 -1.171878,0.107487 -1.920813,0.107487 -0.963266,0 -1.552745,-0.04523 -2.645834,-0.203605 -0.218701,-0.03167 -0.344957,-0.04357 -0.451135,-0.03927 z m 0.452686,1.398881 c 0.14092,6.09e-4 5.165063,-0.04471 5.314404,0 0.140226,0.042 0.289942,0.169039 0.365352,0.310059 0.05937,0.11101 0.06146,0.145549 0.06976,1.035079 0.0073,0.78001 0.0019,0.943763 -0.03566,1.072803 -0.05523,0.18995 -0.20314,0.34556 -0.388607,0.40876 -0.120029,0.04091 -0.386839,0.04541 -2.679423,0.04341 -2.837676,-0.003 -2.112659,-0.0069 -2.638599,-0.01395 -0.141771,-0.002 -0.437233,-0.17176 -0.441833,-0.47594 -0.0076,-0.50598 0.0031,-0.553429 0,-1.035079 -0.0068,-1.044382 -0.03588,-0.898302 0.0021,-1.050582 0.04053,-0.16232 0.191639,-0.295496 0.432532,-0.294556 z m 2.663403,0.328146 c -1.698564,0 -2.571179,0.0099 -2.606559,0.02842 -0.128443,0.0687 -0.136943,0.133894 -0.136943,1.079004 v 0.889351 c 0.0085,0.128522 0.0763,0.182202 0.188102,0.188102 h 2.546615 2.546098 c 0.162548,-0.0134 0.180867,-0.161747 0.180867,-0.161747 l 0.0083,-0.892452 c 0.0058,-0.63876 -0.0015,-0.915217 -0.0248,-0.971517 -0.06992,-0.168764 0.08882,-0.159163 -2.701644,-0.159163 z m 1.491382,0.291971 c 0.04004,1e-4 0.08021,0.0022 0.110587,0.0052 0.01386,0.002 0.02794,0.0032 0.04186,0.0052 0.06047,0.008 0.157004,0.03093 0.214974,0.05013 0.0262,0.009 0.05285,0.01855 0.0801,0.02945 0.05669,0.0227 0.113221,0.09306 0.114721,0.153996 1.46e-4,0.006 5.61e-4,0.01147 5.17e-4,0.01757 -5e-4,0.0571 -0.01989,0.103537 -0.03049,0.109037 h -5.17e-4 l -5.17e-4,5.17e-4 h -5.16e-4 l -0.09043,-0.06356 c -0.107223,-0.0611 -0.162485,-0.08599 -0.221175,-0.102836 -0.02963,-0.008 -0.101981,-0.02612 -0.162781,-0.03152 -0.04966,-0.004 -0.140285,-0.0043 -0.200505,0.0057 -0.07768,0.01271 -0.146272,0.03952 -0.205672,0.08062 -0.05016,0.0346 -0.117514,0.109334 -0.147794,0.162264 -0.03892,0.068 -0.0635,0.147145 -0.07441,0.237195 -0.0073,0.0606 -0.0075,0.159998 -5.17e-4,0.220658 0.01123,0.09801 0.03811,0.183135 0.08062,0.254765 0.03111,0.0524 0.100155,0.125414 0.150895,0.159164 0.06373,0.0424 0.137879,0.06977 0.222209,0.08217 0.06039,0.009 0.159988,0.0075 0.220658,5.17e-4 0.04549,-0.005 0.130876,-0.02149 0.189136,-0.03979 0.03468,-0.01089 0.0615,-0.0722 0.0615,-0.133325 V 37.73103 a 0.11061558,0.11061558 0 0 0 -0.110588,-0.110587 h -0.18035 a 0.11061558,0.11061558 0 0 1 -0.110588,-0.111105 0.06747509,0.06747509 0 0 1 0.07028,-0.06408 h 0.418062 a 0.11061558,0.11061558 0 0 1 0.110588,0.110587 v 0.42168 c 0,0.0611 -0.04477,0.131569 -0.101803,0.153479 -0.02007,0.008 -0.04065,0.01554 -0.0615,0.02274 -0.0577,0.02 -0.152827,0.04749 -0.212907,0.0584 -0.02111,0.0041 -0.04226,0.0067 -0.06305,0.0098 -0.06061,0.0069 -0.159858,0.007 -0.220658,0.0021 -0.0356,-0.003 -0.0703,-0.0078 -0.10387,-0.01499 -0.05988,-0.0121 -0.154393,-0.04258 -0.208773,-0.07028 -0.02072,-0.01065 -0.04086,-0.02222 -0.05994,-0.03462 -0.05116,-0.0332 -0.124097,-0.101705 -0.160197,-0.150895 -0.01415,-0.01929 -0.02703,-0.03968 -0.03927,-0.06098 -0.03036,-0.0529 -0.06555,-0.146142 -0.07906,-0.205672 -0.009,-0.0401 -0.01615,-0.08259 -0.02015,-0.127124 -0.0054,-0.0608 -0.0051,-0.160406 10e-4,-0.221176 0.0146,-0.14562 0.05857,-0.26948 0.132291,-0.37207 0.03561,-0.0496 0.106203,-0.119839 0.156063,-0.155029 0.104849,-0.074 0.232268,-0.118072 0.381889,-0.132292 0.03038,-0.003 0.07055,-0.0036 0.110587,-0.0036 l -5.16e-4,-0.001 z m -3.266468,0.02687 h 0.198438 c 0.06109,0 0.160235,-5.66e-4 0.221175,0.0041 0.0021,1.4e-4 0.0043,3.84e-4 0.0062,5.17e-4 0.06088,0.005 0.159104,0.02221 0.214974,0.04651 0.0329,0.0143 0.10169,0.05526 0.14211,0.100769 0.02661,0.03 0.06858,0.102584 0.0801,0.162264 0.0098,0.0512 0.01003,0.144382 -0.0021,0.204122 -0.0047,0.0226 -0.01039,0.0445 -0.01809,0.06511 -0.02125,0.0571 -0.08202,0.137657 -0.129191,0.176217 -0.01545,0.0127 -0.03173,0.02424 -0.04909,0.03514 -0.05161,0.0325 -0.06672,0.08699 -0.02687,0.133325 l 0.419612,0.487825 a 0.05075751,0.05075751 0 0 1 -0.03876,0.08372 h -0.03721 a 0.23760049,0.23760049 0 0 1 -0.181901,-0.08475 l -0.358635,-0.426847 a 0.23760049,0.23760049 0 0 0 -0.181901,-0.08475 h -0.05943 a 0.11061558,0.11061558 0 0 0 -0.111104,0.111105 v 0.374654 a 0.11061558,0.11061558 0 0 1 -0.110587,0.110587 0.10025986,0.10025986 0 0 1 -0.08837,-0.110587 v -1.277958 a 0.11061558,0.11061558 0 0 1 0.110587,-0.110588 z m 1.433505,0 h 0.185518 c 0.06109,0 0.160335,-6.32e-4 0.221175,0.0052 0.003,2.27e-4 0.0058,7.42e-4 0.0088,10e-4 0.06074,0.006 0.158164,0.02784 0.213424,0.05374 0.03539,0.0165 0.104654,0.06112 0.144694,0.10697 0.03109,0.0357 0.07374,0.1145 0.08578,0.17415 1.73e-4,9e-4 2.52e-4,0.0021 5.16e-4,0.0031 0.01159,0.0598 0.0114,0.160085 -0.0015,0.219625 -0.0094,0.0426 -0.04105,0.122893 -0.077,0.172083 -0.02164,0.0296 -0.07817,0.08685 -0.129708,0.119372 -0.0505,0.0319 -0.143891,0.06481 -0.204121,0.07441 -0.01577,0.003 -0.0321,0.0052 -0.04909,0.0062 -0.06077,0.006 -0.160085,0.0052 -0.221175,0.0052 a 0.10025951,0.10025951 0 0 0 -0.08837,0.110588 v 0.337447 a 0.11061558,0.11061558 0 0 1 -0.110587,0.110587 0.10025998,0.10025998 0 0 1 -0.08888,-0.110587 v -1.277958 a 0.11061558,0.11061558 0 0 1 0.110588,-0.110588 z m -1.23455,0.171566 a 0.11061558,0.11061558 0 0 0 -0.110588,0.110588 v 0.344165 a 0.11061558,0.11061558 0 0 0 0.110588,0.110587 c 0.0501,0 0.140988,0.0013 0.201538,-0.0057 0.03044,-0.0041 0.105852,-0.0195 0.154512,-0.05581 0.01135,-0.008 0.0595,-0.05017 0.0832,-0.105937 0.0016,-0.0041 0.02099,-0.05447 0.02429,-0.115238 7.9e-4,-0.0176 0.0046,-0.08384 -0.01964,-0.139526 -0.0016,-0.003 -0.02394,-0.05456 -0.0739,-0.08837 -0.0016,-10e-4 -0.0458,-0.03118 -0.10542,-0.04238 -2.49e-4,-4e-5 -0.04907,-0.01028 -0.110071,-0.01188 -0.0166,-5.03e-4 -0.07998,0 -0.141076,0 z m 1.409733,0 a 0.09937525,0.09937525 0 0 0 -0.08682,0.110588 v 0.377754 a 0.11061558,0.11061558 0 0 0 0.110588,0.110588 c 0.03174,0 0.107238,8.32e-4 0.167948,-0.0052 0.04793,-0.005 0.136762,-0.02708 0.185002,-0.06408 0.01402,-0.01077 0.06291,-0.05553 0.0863,-0.111621 0.0027,-0.006 0.02259,-0.05861 0.02429,-0.119372 1.7e-4,-0.006 0.0031,-0.06292 -0.01654,-0.120406 -0.005,-0.0148 -0.03165,-0.07443 -0.0801,-0.110588 -0.0071,-0.005 -0.05555,-0.03778 -0.114722,-0.05168 -0.005,-10e-4 -0.05791,-0.01249 -0.118856,-0.01499 -0.02558,-9.67e-4 -0.09601,-10e-4 -0.157096,-10e-4 z" /><path
       id="path56"
       style="display:inline;fill:#ffffff;stroke-width:0.101452"
       inkscape:label="bubble-soap"
       d="m 28.865938,34.117814 c -0.167067,0.0065 -0.336516,0.07003 -0.481624,0.200505 -0.343979,0.309265 -0.343731,0.815469 5.17e-4,1.124996 0.07218,0.06495 0.182049,0.135513 0.244429,0.157613 0.256905,0.09095 0.552647,0.03142 0.762744,-0.153479 0.209988,-0.184845 0.300819,-0.457268 0.239779,-0.719853 -0.08532,-0.367166 -0.37868,-0.590455 -0.694531,-0.609265 -0.02367,-0.0014 -0.04744,-0.0014 -0.07131,-5.17e-4 z m 0.0041,0.135392 c 0.01964,-7.6e-4 0.03892,-6.31e-4 0.0584,5.17e-4 0.259803,0.01547 0.500842,0.19925 0.571024,0.501262 0.05021,0.215989 -0.02417,0.439651 -0.196887,0.591695 -0.172816,0.152091 -0.416035,0.201419 -0.627352,0.126607 -0.05131,-0.01818 -0.14165,-0.07681 -0.201021,-0.130225 -0.283161,-0.254601 -0.283457,-0.670621 -5.17e-4,-0.925008 0.119359,-0.107322 0.258938,-0.159525 0.396358,-0.164848 z" /><path
       id="path2-7"
       style="display:none;fill:#ffffff;stroke-width:0.0694456"
       inkscape:label="fragment-soap"
       d="m 28.672152,34.740515 5.16e-4,5.17e-4 c -0.07058,-0.0029 -0.15179,0.0033 -0.274401,0.01912 -0.05082,0.180225 0.0019,0.379395 0.158129,0.519865 0.0494,0.04446 0.124732,0.09339 0.167432,0.108521 0.175855,0.06225 0.378116,0.02115 0.521932,-0.10542 0.07211,-0.06348 0.123703,-0.142152 0.151929,-0.227377 -0.03753,-0.03635 -0.07756,-0.06968 -0.11989,-0.100252 -0.08998,0.06757 -0.20699,0.08694 -0.310058,0.04909 -0.02746,-0.01008 -0.07623,-0.04272 -0.108004,-0.07235 -0.05578,-0.052 -0.09119,-0.116116 -0.105937,-0.183452 -0.02691,-0.004 -0.05337,-0.0075 -0.08165,-0.0083 z" /><path
       d="m 29.122142,34.319002 c 0.0097,-3.77e-4 0.01939,-3.65e-4 0.02904,2.04e-4 0.128783,0.0077 0.248269,0.09879 0.283058,0.248494 0.02489,0.107064 -0.01215,0.21812 -0.09776,0.293487 -0.08566,0.07539 -0.206124,0.09967 -0.310872,0.06258 -0.02543,-0.009 -0.07038,-0.03795 -0.09981,-0.06442 -0.140361,-0.126203 -0.140457,-0.332438 -2.05e-4,-0.458536 0.05917,-0.0532 0.128427,-0.07917 0.196545,-0.08181 z"
       style="display:inline;fill:#ffffff;stroke-width:0.0413652"
       id="path6"
       inkscape:label="reflex-soap" /><path
       id="path54"
       style="display:inline;fill:#ffffff;stroke-width:0.104518"
       inkscape:label="bubble-l"
       d="m 27.142013,33.236731 c -0.25663,0.009 -0.508557,0.153771 -0.623735,0.429431 -0.06088,0.14574 -0.05128,0.427079 0.01964,0.573609 0.0715,0.14772 0.241315,0.299847 0.396875,0.355017 0.58825,0.20862 1.136668,-0.413498 0.857829,-0.973068 -0.133075,-0.26704 -0.393977,-0.393889 -0.650606,-0.384989 z m 0.01344,0.113688 c 0.01834,-7.09e-4 0.0366,-5.55e-4 0.05478,5.17e-4 0.242652,0.01445 0.467753,0.186115 0.533301,0.468188 0.0469,0.201731 -0.02266,0.410931 -0.183968,0.552938 -0.161408,0.14205 -0.388645,0.187694 -0.586011,0.117822 -0.04792,-0.01698 -0.13265,-0.07155 -0.188102,-0.121439 -0.264467,-0.237793 -0.26426,-0.626437 0,-0.86403 0.11148,-0.100237 0.241655,-0.149024 0.370003,-0.153996 z" /><path
       d="m 27.428243,33.506539 c 0.0091,-3.52e-4 0.01811,-3.41e-4 0.02713,1.9e-4 0.120282,0.0071 0.23188,0.09227 0.264371,0.232089 0.02325,0.1 -0.01135,0.20372 -0.09131,0.274112 -0.08,0.07041 -0.192517,0.09309 -0.290349,0.05845 -0.02375,-0.0084 -0.06574,-0.03544 -0.09323,-0.06017 -0.131094,-0.117871 -0.131184,-0.310491 -1.91e-4,-0.428264 0.05526,-0.04969 0.119948,-0.07394 0.183569,-0.07641 z"
       style="display:inline;fill:#ffffff;stroke-width:0.0386343"
       id="path17"
       inkscape:label="reflex-l" /><path
       id="path52"
       style="display:inline;fill:#ffffff;stroke-width:0.104518"
       inkscape:label="bubble-r"
       d="m 28.801343,32.355648 c -0.09793,-0.004 -0.196388,0.01409 -0.286804,0.05529 -0.262631,0.11961 -0.439499,0.458252 -0.374655,0.718302 0.06901,0.27678 0.25461,0.470367 0.50798,0.530717 0.133046,0.0317 0.16218,0.03013 0.324528,-0.01757 0.182772,-0.0538 0.393445,-0.253939 0.438733,-0.417029 0.073,-0.26282 0.01626,-0.493511 -0.166398,-0.676961 -0.118832,-0.11933 -0.280189,-0.186303 -0.443384,-0.192753 z m -0.03256,0.128674 c 0.01671,-6.46e-4 0.03303,-9.77e-4 0.04961,0 0.221226,0.01318 0.426516,0.169683 0.486275,0.426847 0.04275,0.183919 -0.02088,0.374895 -0.167948,0.504362 -0.147156,0.129507 -0.35388,0.171194 -0.533818,0.107487 -0.04369,-0.01547 -0.12101,-0.0651 -0.171565,-0.110587 -0.241115,-0.216795 -0.241442,-0.570936 -5.17e-4,-0.787549 0.101641,-0.09138 0.220949,-0.136026 0.337964,-0.14056 z" /><path
       id="path50-3"
       style="display:none;fill:#ffffff;stroke-width:0.0743972"
       inkscape:label="hex-bubble"
       d="m 28.701607,32.579407 c -0.0834,0.01296 -0.165856,0.05069 -0.238228,0.115755 -0.137736,0.123837 -0.1833,0.300094 -0.136943,0.458887 0.0983,0.05724 0.215479,0.12623 0.356568,0.209289 l 0.188619,0.111621 c 0.07105,-0.01799 0.138359,-0.05321 0.195337,-0.103353 0.06534,-0.05752 0.111781,-0.12907 0.135909,-0.206705 -0.08322,0.06895 -0.197571,0.09054 -0.29714,0.05529 -0.02486,-0.0088 -0.06889,-0.03717 -0.09767,-0.06305 -0.137239,-0.123402 -0.137133,-0.325258 0,-0.448551 0.0166,-0.01493 0.03423,-0.02761 0.05219,-0.03824 -0.05367,-0.0309 -0.107119,-0.06142 -0.158647,-0.09095 z" /><path
       d="m 29.045531,32.647725 c 0.0083,-3.21e-4 0.0165,-3.12e-4 0.02473,1.72e-4 0.109659,0.0064 0.211404,0.08413 0.241025,0.211596 0.0212,0.09117 -0.01031,0.185731 -0.08324,0.249907 -0.07294,0.0642 -0.175518,0.08488 -0.264711,0.0533 -0.02165,-0.0076 -0.05993,-0.03231 -0.08499,-0.05485 -0.119518,-0.107467 -0.1196,-0.283074 -1.74e-4,-0.390447 0.05037,-0.0453 0.109356,-0.06741 0.16736,-0.06966 z"
       style="display:inline;fill:#ffffff;stroke-width:0.0352228"
       id="path19"
       inkscape:label="reflex-r" /></g><script
     id="mesh_polyfill"
     type="text/javascript">
!function(){const t=&quot;http://www.w3.org/2000/svg&quot;,e=&quot;http://www.w3.org/1999/xlink&quot;,s=&quot;http://www.w3.org/1999/xhtml&quot;,r=2;if(document.createElementNS(t,&quot;meshgradient&quot;).x)return;const n=(t,e,s,r)=&gt;{let n=new x(.5*(e.x+s.x),.5*(e.y+s.y)),o=new x(.5*(t.x+e.x),.5*(t.y+e.y)),i=new x(.5*(s.x+r.x),.5*(s.y+r.y)),a=new x(.5*(n.x+o.x),.5*(n.y+o.y)),h=new x(.5*(n.x+i.x),.5*(n.y+i.y)),l=new x(.5*(a.x+h.x),.5*(a.y+h.y));return[[t,o,a,l],[l,h,i,r]]},o=t=&gt;{let e=t[0].distSquared(t[1]),s=t[2].distSquared(t[3]),r=.25*t[0].distSquared(t[2]),n=.25*t[1].distSquared(t[3]),o=e&gt;s?e:s,i=r&gt;n?r:n;return 18*(o&gt;i?o:i)},i=(t,e)=&gt;Math.sqrt(t.distSquared(e)),a=(t,e)=&gt;t.scale(2/3).add(e.scale(1/3)),h=t=&gt;{let e,s,r,n,o,i,a,h=new g;return t.match(/(\w+\(\s*[^)]+\))+/g).forEach(t=&gt;{let l=t.match(/[\w.-]+/g),d=l.shift();switch(d){case&quot;translate&quot;:2===l.length?e=new g(1,0,0,1,l[0],l[1]):(console.error(&quot;mesh.js: translate does not have 2 arguments!&quot;),e=new g(1,0,0,1,0,0)),h=h.append(e);break;case&quot;scale&quot;:1===l.length?s=new g(l[0],0,0,l[0],0,0):2===l.length?s=new g(l[0],0,0,l[1],0,0):(console.error(&quot;mesh.js: scale does not have 1 or 2 arguments!&quot;),s=new g(1,0,0,1,0,0)),h=h.append(s);break;case&quot;rotate&quot;:if(3===l.length&amp;&amp;(e=new g(1,0,0,1,l[1],l[2]),h=h.append(e)),l[0]){r=l[0]*Math.PI/180;let t=Math.cos(r),e=Math.sin(r);Math.abs(t)&lt;1e-16&amp;&amp;(t=0),Math.abs(e)&lt;1e-16&amp;&amp;(e=0),a=new g(t,e,-e,t,0,0),h=h.append(a)}else console.error(&quot;math.js: No argument to rotate transform!&quot;);3===l.length&amp;&amp;(e=new g(1,0,0,1,-l[1],-l[2]),h=h.append(e));break;case&quot;skewX&quot;:l[0]?(r=l[0]*Math.PI/180,n=Math.tan(r),o=new g(1,0,n,1,0,0),h=h.append(o)):console.error(&quot;math.js: No argument to skewX transform!&quot;);break;case&quot;skewY&quot;:l[0]?(r=l[0]*Math.PI/180,n=Math.tan(r),i=new g(1,n,0,1,0,0),h=h.append(i)):console.error(&quot;math.js: No argument to skewY transform!&quot;);break;case&quot;matrix&quot;:6===l.length?h=h.append(new g(...l)):console.error(&quot;math.js: Incorrect number of arguments for matrix!&quot;);break;default:console.error(&quot;mesh.js: Unhandled transform type: &quot;+d)}}),h},l=t=&gt;{let e=[],s=t.split(/[ ,]+/);for(let t=0,r=s.length-1;t&lt;r;t+=2)e.push(new x(parseFloat(s[t]),parseFloat(s[t+1])));return e},d=(t,e)=&gt;{for(let s in e)t.setAttribute(s,e[s])},c=(t,e,s,r,n)=&gt;{let o,i,a=[0,0,0,0];for(let h=0;h&lt;3;++h)e[h]&lt;t[h]&amp;&amp;e[h]&lt;s[h]||t[h]&lt;e[h]&amp;&amp;s[h]&lt;e[h]?a[h]=0:(a[h]=.5*((e[h]-t[h])/r+(s[h]-e[h])/n),o=Math.abs(3*(e[h]-t[h])/r),i=Math.abs(3*(s[h]-e[h])/n),a[h]&gt;o?a[h]=o:a[h]&gt;i&amp;&amp;(a[h]=i));return a},u=[[1,0,0,0,0,0,0,0,0,0,0,0,0,0,0,0],[0,0,0,0,1,0,0,0,0,0,0,0,0,0,0,0],[-3,3,0,0,-2,-1,0,0,0,0,0,0,0,0,0,0],[2,-2,0,0,1,1,0,0,0,0,0,0,0,0,0,0],[0,0,0,0,0,0,0,0,1,0,0,0,0,0,0,0],[0,0,0,0,0,0,0,0,0,0,0,0,1,0,0,0],[0,0,0,0,0,0,0,0,-3,3,0,0,-2,-1,0,0],[0,0,0,0,0,0,0,0,2,-2,0,0,1,1,0,0],[-3,0,3,0,0,0,0,0,-2,0,-1,0,0,0,0,0],[0,0,0,0,-3,0,3,0,0,0,0,0,-2,0,-1,0],[9,-9,-9,9,6,3,-6,-3,6,-6,3,-3,4,2,2,1],[-6,6,6,-6,-3,-3,3,3,-4,4,-2,2,-2,-2,-1,-1],[2,0,-2,0,0,0,0,0,1,0,1,0,0,0,0,0],[0,0,0,0,2,0,-2,0,0,0,0,0,1,0,1,0],[-6,6,6,-6,-4,-2,4,2,-3,3,-3,3,-2,-1,-2,-1],[4,-4,-4,4,2,2,-2,-2,2,-2,2,-2,1,1,1,1]],f=t=&gt;{let e=[];for(let s=0;s&lt;16;++s){e[s]=0;for(let r=0;r&lt;16;++r)e[s]+=u[s][r]*t[r]}return e},p=(t,e,s)=&gt;{const r=e*e,n=s*s,o=e*e*e,i=s*s*s;return t[0]+t[1]*e+t[2]*r+t[3]*o+t[4]*s+t[5]*s*e+t[6]*s*r+t[7]*s*o+t[8]*n+t[9]*n*e+t[10]*n*r+t[11]*n*o+t[12]*i+t[13]*i*e+t[14]*i*r+t[15]*i*o},y=t=&gt;{let e=[],s=[],r=[];for(let s=0;s&lt;4;++s)e[s]=[],e[s][0]=n(t[0][s],t[1][s],t[2][s],t[3][s]),e[s][1]=[],e[s][1].push(...n(...e[s][0][0])),e[s][1].push(...n(...e[s][0][1])),e[s][2]=[],e[s][2].push(...n(...e[s][1][0])),e[s][2].push(...n(...e[s][1][1])),e[s][2].push(...n(...e[s][1][2])),e[s][2].push(...n(...e[s][1][3]));for(let t=0;t&lt;8;++t){s[t]=[];for(let r=0;r&lt;4;++r)s[t][r]=[],s[t][r][0]=n(e[0][2][t][r],e[1][2][t][r],e[2][2][t][r],e[3][2][t][r]),s[t][r][1]=[],s[t][r][1].push(...n(...s[t][r][0][0])),s[t][r][1].push(...n(...s[t][r][0][1])),s[t][r][2]=[],s[t][r][2].push(...n(...s[t][r][1][0])),s[t][r][2].push(...n(...s[t][r][1][1])),s[t][r][2].push(...n(...s[t][r][1][2])),s[t][r][2].push(...n(...s[t][r][1][3]))}for(let t=0;t&lt;8;++t){r[t]=[];for(let e=0;e&lt;8;++e)r[t][e]=[],r[t][e][0]=s[t][0][2][e],r[t][e][1]=s[t][1][2][e],r[t][e][2]=s[t][2][2][e],r[t][e][3]=s[t][3][2][e]}return r};class x{constructor(t,e){this.x=t||0,this.y=e||0}toString(){return`(x=${this.x}, y=${this.y})`}clone(){return new x(this.x,this.y)}add(t){return new x(this.x+t.x,this.y+t.y)}scale(t){return void 0===t.x?new x(this.x*t,this.y*t):new x(this.x*t.x,this.y*t.y)}distSquared(t){let e=this.x-t.x,s=this.y-t.y;return e*e+s*s}transform(t){let e=this.x*t.a+this.y*t.c+t.e,s=this.x*t.b+this.y*t.d+t.f;return new x(e,s)}}class g{constructor(t,e,s,r,n,o){void 0===t?(this.a=1,this.b=0,this.c=0,this.d=1,this.e=0,this.f=0):(this.a=t,this.b=e,this.c=s,this.d=r,this.e=n,this.f=o)}toString(){return`affine: ${this.a} ${this.c} ${this.e} \n       ${this.b} ${this.d} ${this.f}`}append(t){t instanceof g||console.error(&quot;mesh.js: argument to Affine.append is not affine!&quot;);let e=this.a*t.a+this.c*t.b,s=this.b*t.a+this.d*t.b,r=this.a*t.c+this.c*t.d,n=this.b*t.c+this.d*t.d,o=this.a*t.e+this.c*t.f+this.e,i=this.b*t.e+this.d*t.f+this.f;return new g(e,s,r,n,o,i)}}class w{constructor(t,e){this.nodes=t,this.colors=e}paintCurve(t,e){if(o(this.nodes)&gt;r){const s=n(...this.nodes);let r=[[],[]],o=[[],[]];for(let t=0;t&lt;4;++t)r[0][t]=this.colors[0][t],r[1][t]=(this.colors[0][t]+this.colors[1][t])/2,o[0][t]=r[1][t],o[1][t]=this.colors[1][t];let i=new w(s[0],r),a=new w(s[1],o);i.paintCurve(t,e),a.paintCurve(t,e)}else{let s=Math.round(this.nodes[0].x);if(s&gt;=0&amp;&amp;s&lt;e){let r=4*(~~this.nodes[0].y*e+s);t[r]=Math.round(this.colors[0][0]),t[r+1]=Math.round(this.colors[0][1]),t[r+2]=Math.round(this.colors[0][2]),t[r+3]=Math.round(this.colors[0][3])}}}}class m{constructor(t,e){this.nodes=t,this.colors=e}split(){let t=[[],[],[],[]],e=[[],[],[],[]],s=[[[],[]],[[],[]]],r=[[[],[]],[[],[]]];for(let s=0;s&lt;4;++s){const r=n(this.nodes[0][s],this.nodes[1][s],this.nodes[2][s],this.nodes[3][s]);t[0][s]=r[0][0],t[1][s]=r[0][1],t[2][s]=r[0][2],t[3][s]=r[0][3],e[0][s]=r[1][0],e[1][s]=r[1][1],e[2][s]=r[1][2],e[3][s]=r[1][3]}for(let t=0;t&lt;4;++t)s[0][0][t]=this.colors[0][0][t],s[0][1][t]=this.colors[0][1][t],s[1][0][t]=(this.colors[0][0][t]+this.colors[1][0][t])/2,s[1][1][t]=(this.colors[0][1][t]+this.colors[1][1][t])/2,r[0][0][t]=s[1][0][t],r[0][1][t]=s[1][1][t],r[1][0][t]=this.colors[1][0][t],r[1][1][t]=this.colors[1][1][t];return[new m(t,s),new m(e,r)]}paint(t,e){let s,n=!1;for(let t=0;t&lt;4;++t)if((s=o([this.nodes[0][t],this.nodes[1][t],this.nodes[2][t],this.nodes[3][t]]))&gt;r){n=!0;break}if(n){let s=this.split();s[0].paint(t,e),s[1].paint(t,e)}else{new w([...this.nodes[0]],[...this.colors[0]]).paintCurve(t,e)}}}class b{constructor(t){this.readMesh(t),this.type=t.getAttribute(&quot;type&quot;)||&quot;bilinear&quot;}readMesh(t){let e=[[]],s=[[]],r=Number(t.getAttribute(&quot;x&quot;)),n=Number(t.getAttribute(&quot;y&quot;));e[0][0]=new x(r,n);let o=t.children;for(let t=0,r=o.length;t&lt;r;++t){e[3*t+1]=[],e[3*t+2]=[],e[3*t+3]=[],s[t+1]=[];let r=o[t].children;for(let n=0,o=r.length;n&lt;o;++n){let o=r[n].children;for(let r=0,i=o.length;r&lt;i;++r){let i=r;0!==t&amp;&amp;++i;let h,d=o[r].getAttribute(&quot;path&quot;),c=&quot;l&quot;;null!=d&amp;&amp;(c=(h=d.match(/\s*([lLcC])\s*(.*)/))[1]);let u=l(h[2]);switch(c){case&quot;l&quot;:0===i?(e[3*t][3*n+3]=u[0].add(e[3*t][3*n]),e[3*t][3*n+1]=a(e[3*t][3*n],e[3*t][3*n+3]),e[3*t][3*n+2]=a(e[3*t][3*n+3],e[3*t][3*n])):1===i?(e[3*t+3][3*n+3]=u[0].add(e[3*t][3*n+3]),e[3*t+1][3*n+3]=a(e[3*t][3*n+3],e[3*t+3][3*n+3]),e[3*t+2][3*n+3]=a(e[3*t+3][3*n+3],e[3*t][3*n+3])):2===i?(0===n&amp;&amp;(e[3*t+3][3*n+0]=u[0].add(e[3*t+3][3*n+3])),e[3*t+3][3*n+1]=a(e[3*t+3][3*n],e[3*t+3][3*n+3]),e[3*t+3][3*n+2]=a(e[3*t+3][3*n+3],e[3*t+3][3*n])):(e[3*t+1][3*n]=a(e[3*t][3*n],e[3*t+3][3*n]),e[3*t+2][3*n]=a(e[3*t+3][3*n],e[3*t][3*n]));break;case&quot;L&quot;:0===i?(e[3*t][3*n+3]=u[0],e[3*t][3*n+1]=a(e[3*t][3*n],e[3*t][3*n+3]),e[3*t][3*n+2]=a(e[3*t][3*n+3],e[3*t][3*n])):1===i?(e[3*t+3][3*n+3]=u[0],e[3*t+1][3*n+3]=a(e[3*t][3*n+3],e[3*t+3][3*n+3]),e[3*t+2][3*n+3]=a(e[3*t+3][3*n+3],e[3*t][3*n+3])):2===i?(0===n&amp;&amp;(e[3*t+3][3*n+0]=u[0]),e[3*t+3][3*n+1]=a(e[3*t+3][3*n],e[3*t+3][3*n+3]),e[3*t+3][3*n+2]=a(e[3*t+3][3*n+3],e[3*t+3][3*n])):(e[3*t+1][3*n]=a(e[3*t][3*n],e[3*t+3][3*n]),e[3*t+2][3*n]=a(e[3*t+3][3*n],e[3*t][3*n]));break;case&quot;c&quot;:0===i?(e[3*t][3*n+1]=u[0].add(e[3*t][3*n]),e[3*t][3*n+2]=u[1].add(e[3*t][3*n]),e[3*t][3*n+3]=u[2].add(e[3*t][3*n])):1===i?(e[3*t+1][3*n+3]=u[0].add(e[3*t][3*n+3]),e[3*t+2][3*n+3]=u[1].add(e[3*t][3*n+3]),e[3*t+3][3*n+3]=u[2].add(e[3*t][3*n+3])):2===i?(e[3*t+3][3*n+2]=u[0].add(e[3*t+3][3*n+3]),e[3*t+3][3*n+1]=u[1].add(e[3*t+3][3*n+3]),0===n&amp;&amp;(e[3*t+3][3*n+0]=u[2].add(e[3*t+3][3*n+3]))):(e[3*t+2][3*n]=u[0].add(e[3*t+3][3*n]),e[3*t+1][3*n]=u[1].add(e[3*t+3][3*n]));break;case&quot;C&quot;:0===i?(e[3*t][3*n+1]=u[0],e[3*t][3*n+2]=u[1],e[3*t][3*n+3]=u[2]):1===i?(e[3*t+1][3*n+3]=u[0],e[3*t+2][3*n+3]=u[1],e[3*t+3][3*n+3]=u[2]):2===i?(e[3*t+3][3*n+2]=u[0],e[3*t+3][3*n+1]=u[1],0===n&amp;&amp;(e[3*t+3][3*n+0]=u[2])):(e[3*t+2][3*n]=u[0],e[3*t+1][3*n]=u[1]);break;default:console.error(&quot;mesh.js: &quot;+c+&quot; invalid path type.&quot;)}if(0===t&amp;&amp;0===n||r&gt;0){let e=window.getComputedStyle(o[r]).stopColor.match(/^rgb\s*\(\s*(\d+)\s*,\s*(\d+)\s*,\s*(\d+)\s*\)$/i),a=window.getComputedStyle(o[r]).stopOpacity,h=255;a&amp;&amp;(h=Math.floor(255*a)),e&amp;&amp;(0===i?(s[t][n]=[],s[t][n][0]=Math.floor(e[1]),s[t][n][1]=Math.floor(e[2]),s[t][n][2]=Math.floor(e[3]),s[t][n][3]=h):1===i?(s[t][n+1]=[],s[t][n+1][0]=Math.floor(e[1]),s[t][n+1][1]=Math.floor(e[2]),s[t][n+1][2]=Math.floor(e[3]),s[t][n+1][3]=h):2===i?(s[t+1][n+1]=[],s[t+1][n+1][0]=Math.floor(e[1]),s[t+1][n+1][1]=Math.floor(e[2]),s[t+1][n+1][2]=Math.floor(e[3]),s[t+1][n+1][3]=h):3===i&amp;&amp;(s[t+1][n]=[],s[t+1][n][0]=Math.floor(e[1]),s[t+1][n][1]=Math.floor(e[2]),s[t+1][n][2]=Math.floor(e[3]),s[t+1][n][3]=h))}}e[3*t+1][3*n+1]=new x,e[3*t+1][3*n+2]=new x,e[3*t+2][3*n+1]=new x,e[3*t+2][3*n+2]=new x,e[3*t+1][3*n+1].x=(-4*e[3*t][3*n].x+6*(e[3*t][3*n+1].x+e[3*t+1][3*n].x)+-2*(e[3*t][3*n+3].x+e[3*t+3][3*n].x)+3*(e[3*t+3][3*n+1].x+e[3*t+1][3*n+3].x)+-1*e[3*t+3][3*n+3].x)/9,e[3*t+1][3*n+2].x=(-4*e[3*t][3*n+3].x+6*(e[3*t][3*n+2].x+e[3*t+1][3*n+3].x)+-2*(e[3*t][3*n].x+e[3*t+3][3*n+3].x)+3*(e[3*t+3][3*n+2].x+e[3*t+1][3*n].x)+-1*e[3*t+3][3*n].x)/9,e[3*t+2][3*n+1].x=(-4*e[3*t+3][3*n].x+6*(e[3*t+3][3*n+1].x+e[3*t+2][3*n].x)+-2*(e[3*t+3][3*n+3].x+e[3*t][3*n].x)+3*(e[3*t][3*n+1].x+e[3*t+2][3*n+3].x)+-1*e[3*t][3*n+3].x)/9,e[3*t+2][3*n+2].x=(-4*e[3*t+3][3*n+3].x+6*(e[3*t+3][3*n+2].x+e[3*t+2][3*n+3].x)+-2*(e[3*t+3][3*n].x+e[3*t][3*n+3].x)+3*(e[3*t][3*n+2].x+e[3*t+2][3*n].x)+-1*e[3*t][3*n].x)/9,e[3*t+1][3*n+1].y=(-4*e[3*t][3*n].y+6*(e[3*t][3*n+1].y+e[3*t+1][3*n].y)+-2*(e[3*t][3*n+3].y+e[3*t+3][3*n].y)+3*(e[3*t+3][3*n+1].y+e[3*t+1][3*n+3].y)+-1*e[3*t+3][3*n+3].y)/9,e[3*t+1][3*n+2].y=(-4*e[3*t][3*n+3].y+6*(e[3*t][3*n+2].y+e[3*t+1][3*n+3].y)+-2*(e[3*t][3*n].y+e[3*t+3][3*n+3].y)+3*(e[3*t+3][3*n+2].y+e[3*t+1][3*n].y)+-1*e[3*t+3][3*n].y)/9,e[3*t+2][3*n+1].y=(-4*e[3*t+3][3*n].y+6*(e[3*t+3][3*n+1].y+e[3*t+2][3*n].y)+-2*(e[3*t+3][3*n+3].y+e[3*t][3*n].y)+3*(e[3*t][3*n+1].y+e[3*t+2][3*n+3].y)+-1*e[3*t][3*n+3].y)/9,e[3*t+2][3*n+2].y=(-4*e[3*t+3][3*n+3].y+6*(e[3*t+3][3*n+2].y+e[3*t+2][3*n+3].y)+-2*(e[3*t+3][3*n].y+e[3*t][3*n+3].y)+3*(e[3*t][3*n+2].y+e[3*t+2][3*n].y)+-1*e[3*t][3*n].y)/9}}this.nodes=e,this.colors=s}paintMesh(t,e){let s=(this.nodes.length-1)/3,r=(this.nodes[0].length-1)/3;if(&quot;bilinear&quot;===this.type||s&lt;2||r&lt;2){let n;for(let o=0;o&lt;s;++o)for(let s=0;s&lt;r;++s){let r=[];for(let t=3*o,e=3*o+4;t&lt;e;++t)r.push(this.nodes[t].slice(3*s,3*s+4));let i=[];i.push(this.colors[o].slice(s,s+2)),i.push(this.colors[o+1].slice(s,s+2)),(n=new m(r,i)).paint(t,e)}}else{let n,o,a,h,l,d,u;const x=s,g=r;s++,r++;let w=new Array(s);for(let t=0;t&lt;s;++t){w[t]=new Array(r);for(let e=0;e&lt;r;++e)w[t][e]=[],w[t][e][0]=this.nodes[3*t][3*e],w[t][e][1]=this.colors[t][e]}for(let t=0;t&lt;s;++t)for(let e=0;e&lt;r;++e)0!==t&amp;&amp;t!==x&amp;&amp;(n=i(w[t-1][e][0],w[t][e][0]),o=i(w[t+1][e][0],w[t][e][0]),w[t][e][2]=c(w[t-1][e][1],w[t][e][1],w[t+1][e][1],n,o)),0!==e&amp;&amp;e!==g&amp;&amp;(n=i(w[t][e-1][0],w[t][e][0]),o=i(w[t][e+1][0],w[t][e][0]),w[t][e][3]=c(w[t][e-1][1],w[t][e][1],w[t][e+1][1],n,o));for(let t=0;t&lt;r;++t){w[0][t][2]=[],w[x][t][2]=[];for(let e=0;e&lt;4;++e)n=i(w[1][t][0],w[0][t][0]),o=i(w[x][t][0],w[x-1][t][0]),w[0][t][2][e]=n&gt;0?2*(w[1][t][1][e]-w[0][t][1][e])/n-w[1][t][2][e]:0,w[x][t][2][e]=o&gt;0?2*(w[x][t][1][e]-w[x-1][t][1][e])/o-w[x-1][t][2][e]:0}for(let t=0;t&lt;s;++t){w[t][0][3]=[],w[t][g][3]=[];for(let e=0;e&lt;4;++e)n=i(w[t][1][0],w[t][0][0]),o=i(w[t][g][0],w[t][g-1][0]),w[t][0][3][e]=n&gt;0?2*(w[t][1][1][e]-w[t][0][1][e])/n-w[t][1][3][e]:0,w[t][g][3][e]=o&gt;0?2*(w[t][g][1][e]-w[t][g-1][1][e])/o-w[t][g-1][3][e]:0}for(let s=0;s&lt;x;++s)for(let r=0;r&lt;g;++r){let n=i(w[s][r][0],w[s+1][r][0]),o=i(w[s][r+1][0],w[s+1][r+1][0]),c=i(w[s][r][0],w[s][r+1][0]),x=i(w[s+1][r][0],w[s+1][r+1][0]),g=[[],[],[],[]];for(let t=0;t&lt;4;++t){(d=[])[0]=w[s][r][1][t],d[1]=w[s+1][r][1][t],d[2]=w[s][r+1][1][t],d[3]=w[s+1][r+1][1][t],d[4]=w[s][r][2][t]*n,d[5]=w[s+1][r][2][t]*n,d[6]=w[s][r+1][2][t]*o,d[7]=w[s+1][r+1][2][t]*o,d[8]=w[s][r][3][t]*c,d[9]=w[s+1][r][3][t]*x,d[10]=w[s][r+1][3][t]*c,d[11]=w[s+1][r+1][3][t]*x,d[12]=0,d[13]=0,d[14]=0,d[15]=0,u=f(d);for(let e=0;e&lt;9;++e){g[t][e]=[];for(let s=0;s&lt;9;++s)g[t][e][s]=p(u,e/8,s/8),g[t][e][s]&gt;255?g[t][e][s]=255:g[t][e][s]&lt;0&amp;&amp;(g[t][e][s]=0)}}h=[];for(let t=3*s,e=3*s+4;t&lt;e;++t)h.push(this.nodes[t].slice(3*r,3*r+4));l=y(h);for(let s=0;s&lt;8;++s)for(let r=0;r&lt;8;++r)(a=new m(l[s][r],[[[g[0][s][r],g[1][s][r],g[2][s][r],g[3][s][r]],[g[0][s][r+1],g[1][s][r+1],g[2][s][r+1],g[3][s][r+1]]],[[g[0][s+1][r],g[1][s+1][r],g[2][s+1][r],g[3][s+1][r]],[g[0][s+1][r+1],g[1][s+1][r+1],g[2][s+1][r+1],g[3][s+1][r+1]]]])).paint(t,e)}}}transform(t){if(t instanceof x)for(let e=0,s=this.nodes.length;e&lt;s;++e)for(let s=0,r=this.nodes[0].length;s&lt;r;++s)this.nodes[e][s]=this.nodes[e][s].add(t);else if(t instanceof g)for(let e=0,s=this.nodes.length;e&lt;s;++e)for(let s=0,r=this.nodes[0].length;s&lt;r;++s)this.nodes[e][s]=this.nodes[e][s].transform(t)}scale(t){for(let e=0,s=this.nodes.length;e&lt;s;++e)for(let s=0,r=this.nodes[0].length;s&lt;r;++s)this.nodes[e][s]=this.nodes[e][s].scale(t)}}document.querySelectorAll(&quot;rect,circle,ellipse,path,text&quot;).forEach((r,n)=&gt;{let o=r.getAttribute(&quot;id&quot;);o||(o=&quot;patchjs_shape&quot;+n,r.setAttribute(&quot;id&quot;,o));const i=r.style.fill.match(/^url\(\s*&quot;?\s*#([^\s&quot;]+)&quot;?\s*\)/),a=r.style.stroke.match(/^url\(\s*&quot;?\s*#([^\s&quot;]+)&quot;?\s*\)/);if(i&amp;&amp;i[1]){const a=document.getElementById(i[1]);if(a&amp;&amp;&quot;meshgradient&quot;===a.nodeName){const i=r.getBBox();let l=document.createElementNS(s,&quot;canvas&quot;);d(l,{width:i.width,height:i.height});const c=l.getContext(&quot;2d&quot;);let u=c.createImageData(i.width,i.height);const f=new b(a);&quot;objectBoundingBox&quot;===a.getAttribute(&quot;gradientUnits&quot;)&amp;&amp;f.scale(new x(i.width,i.height));const p=a.getAttribute(&quot;gradientTransform&quot;);null!=p&amp;&amp;f.transform(h(p)),&quot;userSpaceOnUse&quot;===a.getAttribute(&quot;gradientUnits&quot;)&amp;&amp;f.transform(new x(-i.x,-i.y)),f.paintMesh(u.data,l.width),c.putImageData(u,0,0);const y=document.createElementNS(t,&quot;image&quot;);d(y,{width:i.width,height:i.height,x:i.x,y:i.y});let g=l.toDataURL();y.setAttributeNS(e,&quot;xlink:href&quot;,g),r.parentNode.insertBefore(y,r),r.style.fill=&quot;none&quot;;const w=document.createElementNS(t,&quot;use&quot;);w.setAttributeNS(e,&quot;xlink:href&quot;,&quot;#&quot;+o);const m=&quot;patchjs_clip&quot;+n,M=document.createElementNS(t,&quot;clipPath&quot;);M.setAttribute(&quot;id&quot;,m),M.appendChild(w),r.parentElement.insertBefore(M,r),y.setAttribute(&quot;clip-path&quot;,&quot;url(#&quot;+m+&quot;)&quot;),u=null,l=null,g=null}}if(a&amp;&amp;a[1]){const o=document.getElementById(a[1]);if(o&amp;&amp;&quot;meshgradient&quot;===o.nodeName){const i=parseFloat(r.style.strokeWidth.slice(0,-2))*(parseFloat(r.style.strokeMiterlimit)||parseFloat(r.getAttribute(&quot;stroke-miterlimit&quot;))||1),a=r.getBBox(),l=Math.trunc(a.width+i),c=Math.trunc(a.height+i),u=Math.trunc(a.x-i/2),f=Math.trunc(a.y-i/2);let p=document.createElementNS(s,&quot;canvas&quot;);d(p,{width:l,height:c});const y=p.getContext(&quot;2d&quot;);let g=y.createImageData(l,c);const w=new b(o);&quot;objectBoundingBox&quot;===o.getAttribute(&quot;gradientUnits&quot;)&amp;&amp;w.scale(new x(l,c));const m=o.getAttribute(&quot;gradientTransform&quot;);null!=m&amp;&amp;w.transform(h(m)),&quot;userSpaceOnUse&quot;===o.getAttribute(&quot;gradientUnits&quot;)&amp;&amp;w.transform(new x(-u,-f)),w.paintMesh(g.data,p.width),y.putImageData(g,0,0);const M=document.createElementNS(t,&quot;image&quot;);d(M,{width:l,height:c,x:0,y:0});let S=p.toDataURL();M.setAttributeNS(e,&quot;xlink:href&quot;,S);const k=&quot;pattern_clip&quot;+n,A=document.createElementNS(t,&quot;pattern&quot;);d(A,{id:k,patternUnits:&quot;userSpaceOnUse&quot;,width:l,height:c,x:u,y:f}),A.appendChild(M),o.parentNode.appendChild(A),r.style.stroke=&quot;url(#&quot;+k+&quot;)&quot;,g=null,p=null,S=null}}})}();
</script></svg>
